STARTFONT 2.1
FONT -FreeType-Opel Sans-Medium-R-Normal--12-120-72-72-P-57-ISO10646-1
SIZE 12 72 72
FONTBOUNDINGBOX 16 15 -3 -3
COMMENT "Generated by fontforge, http://fontforge.sourceforge.net"
COMMENT ""
COMMENT "Converted from OpenType font "OpelSansRegular.ttf" by "otf2bdf 3.0"."
COMMENT ""
STARTPROPERTIES 19
FOUNDRY "FreeType"
FAMILY_NAME "Opel Sans"
WEIGHT_NAME "Medium"
SLANT "R"
SETWIDTH_NAME "Normal"
ADD_STYLE_NAME ""
PIXEL_SIZE 12
POINT_SIZE 120
RESOLUTION_X 72
RESOLUTION_Y 72
SPACING "P"
AVERAGE_WIDTH 57
CHARSET_REGISTRY "ISO10646"
CHARSET_ENCODING "1"
FONT_ASCENT 11
FONT_DESCENT 3
COPYRIGHT "Digitised data copyright Agfa Monotype Corporation 2001. All Rights reserved."
_OTF_FONTFILE "OpelSansRegular.ttf"
_OTF_PSNAME "OpelSans-Regular"
ENDPROPERTIES
CHARS 493
STARTCHAR space
ENCODING 32
SWIDTH 250 0
DWIDTH 3 0
BBX 1 1 0 0
BITMAP
00
ENDCHAR
STARTCHAR exclam
ENCODING 33
SWIDTH 250 0
DWIDTH 3 0
BBX 1 8 1 0
BITMAP
80
80
80
80
80
00
80
80
ENDCHAR
STARTCHAR quotedbl
ENCODING 34
SWIDTH 416 0
DWIDTH 5 0
BBX 3 3 1 5
BITMAP
A0
A0
A0
ENDCHAR
STARTCHAR numbersign
ENCODING 35
SWIDTH 750 0
DWIDTH 9 0
BBX 9 10 0 -2
BITMAP
0E00
8900
C900
EE00
C900
8900
0000
0000
3E00
FF80
ENDCHAR
STARTCHAR dollar
ENCODING 36
SWIDTH 583 0
DWIDTH 9 0
BBX 9 10 0 -2
BITMAP
0700
8900
CC00
E300
C900
8E00
0000
0000
3E00
FF80
ENDCHAR
STARTCHAR percent
ENCODING 37
SWIDTH 666 0
DWIDTH 8 0
BBX 7 8 0 0
BITMAP
64
98
98
70
1C
32
32
4C
ENDCHAR
STARTCHAR ampersand
ENCODING 38
SWIDTH 583 0
DWIDTH 7 0
BBX 5 8 1 0
BITMAP
60
90
80
40
98
88
88
70
ENDCHAR
STARTCHAR quotesingle
ENCODING 39
SWIDTH 250 0
DWIDTH 3 0
BBX 1 3 1 5
BITMAP
80
80
80
ENDCHAR
STARTCHAR parenleft
ENCODING 40
SWIDTH 333 0
DWIDTH 4 0
BBX 3 11 0 -2
BITMAP
20
40
40
80
80
80
80
80
40
40
20
ENDCHAR
STARTCHAR parenright
ENCODING 41
SWIDTH 333 0
DWIDTH 4 0
BBX 3 11 1 -2
BITMAP
80
40
40
20
20
20
20
20
40
40
80
ENDCHAR
STARTCHAR asterisk
ENCODING 42
SWIDTH 500 0
DWIDTH 6 0
BBX 5 5 0 4
BITMAP
20
A8
70
50
50
ENDCHAR
STARTCHAR plus
ENCODING 43
SWIDTH 500 0
DWIDTH 6 0
BBX 5 5 0 1
BITMAP
20
20
F8
20
20
ENDCHAR
STARTCHAR comma
ENCODING 44
SWIDTH 250 0
DWIDTH 3 0
BBX 2 4 0 -2
BITMAP
40
40
40
80
ENDCHAR
STARTCHAR hyphen
ENCODING 45
SWIDTH 333 0
DWIDTH 4 0
BBX 3 1 0 2
BITMAP
E0
ENDCHAR
STARTCHAR period
ENCODING 46
SWIDTH 250 0
DWIDTH 3 0
BBX 1 2 1 0
BITMAP
80
80
ENDCHAR
STARTCHAR slash
ENCODING 47
SWIDTH 333 0
DWIDTH 4 0
BBX 4 10 0 -1
BITMAP
10
10
20
20
20
40
40
40
80
80
ENDCHAR
STARTCHAR zero
ENCODING 48
SWIDTH 583 0
DWIDTH 7 0
BBX 5 8 1 0
BITMAP
70
88
88
88
88
88
88
70
ENDCHAR
STARTCHAR one
ENCODING 49
SWIDTH 583 0
DWIDTH 7 0
BBX 3 8 1 0
BITMAP
20
60
A0
20
20
20
20
20
ENDCHAR
STARTCHAR two
ENCODING 50
SWIDTH 583 0
DWIDTH 7 0
BBX 5 8 1 0
BITMAP
70
88
08
08
10
20
40
F8
ENDCHAR
STARTCHAR three
ENCODING 51
SWIDTH 583 0
DWIDTH 7 0
BBX 5 8 1 0
BITMAP
70
88
08
30
08
08
88
70
ENDCHAR
STARTCHAR four
ENCODING 52
SWIDTH 583 0
DWIDTH 7 0
BBX 6 8 0 0
BITMAP
08
18
28
28
48
FC
08
08
ENDCHAR
STARTCHAR five
ENCODING 53
SWIDTH 583 0
DWIDTH 7 0
BBX 6 8 0 0
BITMAP
7C
40
78
44
04
04
84
78
ENDCHAR
STARTCHAR six
ENCODING 54
SWIDTH 583 0
DWIDTH 7 0
BBX 5 8 1 0
BITMAP
10
20
40
70
88
88
88
70
ENDCHAR
STARTCHAR seven
ENCODING 55
SWIDTH 583 0
DWIDTH 7 0
BBX 6 8 1 0
BITMAP
FC
08
08
10
10
20
20
40
ENDCHAR
STARTCHAR eight
ENCODING 56
SWIDTH 583 0
DWIDTH 7 0
BBX 5 8 1 0
BITMAP
70
88
88
70
88
88
88
70
ENDCHAR
STARTCHAR nine
ENCODING 57
SWIDTH 583 0
DWIDTH 7 0
BBX 5 8 1 0
BITMAP
70
88
88
88
70
10
20
40
ENDCHAR
STARTCHAR colon
ENCODING 58
SWIDTH 250 0
DWIDTH 3 0
BBX 1 6 1 0
BITMAP
80
80
00
00
80
80
ENDCHAR
STARTCHAR semicolon
ENCODING 59
SWIDTH 250 0
DWIDTH 3 0
BBX 2 8 0 -2
BITMAP
40
40
00
00
40
40
40
80
ENDCHAR
STARTCHAR less
ENCODING 60
SWIDTH 500 0
DWIDTH 6 0
BBX 4 5 1 1
BITMAP
10
60
80
60
10
ENDCHAR
STARTCHAR equal
ENCODING 61
SWIDTH 500 0
DWIDTH 6 0
BBX 4 3 1 2
BITMAP
F0
00
F0
ENDCHAR
STARTCHAR greater
ENCODING 62
SWIDTH 500 0
DWIDTH 6 0
BBX 4 5 1 1
BITMAP
80
60
10
60
80
ENDCHAR
STARTCHAR question
ENCODING 63
SWIDTH 416 0
DWIDTH 5 0
BBX 5 8 0 0
BITMAP
70
88
08
70
40
00
40
40
ENDCHAR
STARTCHAR at
ENCODING 64
SWIDTH 1083 0
DWIDTH 13 0
BBX 12 8 0 0
BITMAP
1010
0820
0820
8820
CAA0
ED60
C820
87C0
ENDCHAR
STARTCHAR A
ENCODING 65
SWIDTH 666 0
DWIDTH 8 0
BBX 7 8 0 0
BITMAP
10
28
28
28
44
7C
82
82
ENDCHAR
STARTCHAR B
ENCODING 66
SWIDTH 583 0
DWIDTH 7 0
BBX 5 8 1 0
BITMAP
F0
88
88
F0
88
88
88
F0
ENDCHAR
STARTCHAR C
ENCODING 67
SWIDTH 666 0
DWIDTH 8 0
BBX 6 8 1 0
BITMAP
38
44
80
80
80
80
44
38
ENDCHAR
STARTCHAR D
ENCODING 68
SWIDTH 666 0
DWIDTH 8 0
BBX 6 8 1 0
BITMAP
F0
88
84
84
84
84
88
F0
ENDCHAR
STARTCHAR E
ENCODING 69
SWIDTH 500 0
DWIDTH 6 0
BBX 5 8 1 0
BITMAP
F8
80
80
F0
80
80
80
F8
ENDCHAR
STARTCHAR F
ENCODING 70
SWIDTH 500 0
DWIDTH 6 0
BBX 5 8 1 0
BITMAP
F8
80
80
F0
80
80
80
80
ENDCHAR
STARTCHAR G
ENCODING 71
SWIDTH 666 0
DWIDTH 8 0
BBX 6 8 1 0
BITMAP
38
44
80
80
9C
84
44
38
ENDCHAR
STARTCHAR H
ENCODING 72
SWIDTH 750 0
DWIDTH 9 0
BBX 7 8 1 0
BITMAP
82
82
82
FE
82
82
82
82
ENDCHAR
STARTCHAR I
ENCODING 73
SWIDTH 250 0
DWIDTH 3 0
BBX 1 8 1 0
BITMAP
80
80
80
80
80
80
80
80
ENDCHAR
STARTCHAR J
ENCODING 74
SWIDTH 416 0
DWIDTH 5 0
BBX 4 8 0 0
BITMAP
10
10
10
10
10
10
10
E0
ENDCHAR
STARTCHAR K
ENCODING 75
SWIDTH 666 0
DWIDTH 8 0
BBX 7 8 1 0
BITMAP
84
98
A0
C0
A0
90
8C
82
ENDCHAR
STARTCHAR L
ENCODING 76
SWIDTH 583 0
DWIDTH 7 0
BBX 6 8 1 0
BITMAP
80
80
80
80
80
80
80
FC
ENDCHAR
STARTCHAR M
ENCODING 77
SWIDTH 833 0
DWIDTH 10 0
BBX 7 8 1 0
BITMAP
44
44
44
AA
AA
AA
92
92
ENDCHAR
STARTCHAR N
ENCODING 78
SWIDTH 750 0
DWIDTH 9 0
BBX 7 8 1 0
BITMAP
82
C2
A2
92
92
8A
86
82
ENDCHAR
STARTCHAR O
ENCODING 79
SWIDTH 750 0
DWIDTH 9 0
BBX 7 8 1 0
BITMAP
38
44
82
82
82
82
44
38
ENDCHAR
STARTCHAR P
ENCODING 80
SWIDTH 583 0
DWIDTH 7 0
BBX 5 8 1 0
BITMAP
F0
88
88
88
F0
80
80
80
ENDCHAR
STARTCHAR Q
ENCODING 81
SWIDTH 750 0
DWIDTH 9 0
BBX 7 10 1 -2
BITMAP
38
44
82
82
82
82
44
38
20
7C
ENDCHAR
STARTCHAR R
ENCODING 82
SWIDTH 583 0
DWIDTH 7 0
BBX 6 8 1 0
BITMAP
F0
88
88
88
F0
90
88
84
ENDCHAR
STARTCHAR S
ENCODING 83
SWIDTH 500 0
DWIDTH 6 0
BBX 4 8 1 0
BITMAP
60
90
80
40
20
10
90
60
ENDCHAR
STARTCHAR T
ENCODING 84
SWIDTH 583 0
DWIDTH 7 0
BBX 7 8 0 0
BITMAP
FE
10
10
10
10
10
10
10
ENDCHAR
STARTCHAR U
ENCODING 85
SWIDTH 750 0
DWIDTH 9 0
BBX 7 8 1 0
BITMAP
82
82
82
82
82
82
44
38
ENDCHAR
STARTCHAR V
ENCODING 86
SWIDTH 666 0
DWIDTH 8 0
BBX 7 8 0 0
BITMAP
82
82
44
44
28
28
28
10
ENDCHAR
STARTCHAR W
ENCODING 87
SWIDTH 916 0
DWIDTH 11 0
BBX 11 8 0 0
BITMAP
8420
8420
4A40
4A40
2A80
2A80
1100
1100
ENDCHAR
STARTCHAR X
ENCODING 88
SWIDTH 666 0
DWIDTH 8 0
BBX 7 8 0 0
BITMAP
82
44
28
10
10
28
44
82
ENDCHAR
STARTCHAR Y
ENCODING 89
SWIDTH 666 0
DWIDTH 8 0
BBX 7 8 0 0
BITMAP
82
44
44
28
10
10
10
10
ENDCHAR
STARTCHAR Z
ENCODING 90
SWIDTH 666 0
DWIDTH 8 0
BBX 7 8 0 0
BITMAP
7E
04
08
10
10
20
40
FE
ENDCHAR
STARTCHAR bracketleft
ENCODING 91
SWIDTH 333 0
DWIDTH 4 0
BBX 3 10 1 -1
BITMAP
E0
80
80
80
80
80
80
80
80
E0
ENDCHAR
STARTCHAR backslash
ENCODING 92
SWIDTH 333 0
DWIDTH 4 0
BBX 4 10 0 -1
BITMAP
80
80
40
40
40
20
20
20
10
10
ENDCHAR
STARTCHAR bracketright
ENCODING 93
SWIDTH 333 0
DWIDTH 4 0
BBX 3 10 0 -1
BITMAP
E0
20
20
20
20
20
20
20
20
E0
ENDCHAR
STARTCHAR asciicircum
ENCODING 94
SWIDTH 416 0
DWIDTH 5 0
BBX 3 5 1 3
BITMAP
40
40
A0
A0
A0
ENDCHAR
STARTCHAR underscore
ENCODING 95
SWIDTH 500 0
DWIDTH 6 0
BBX 6 1 0 -2
BITMAP
FC
ENDCHAR
STARTCHAR grave
ENCODING 96
SWIDTH 333 0
DWIDTH 4 0
BBX 2 2 1 6
BITMAP
80
40
ENDCHAR
STARTCHAR a
ENCODING 97
SWIDTH 583 0
DWIDTH 7 0
BBX 5 6 1 0
BITMAP
78
88
88
88
88
78
ENDCHAR
STARTCHAR b
ENCODING 98
SWIDTH 583 0
DWIDTH 7 0
BBX 5 9 1 0
BITMAP
80
80
80
F0
88
88
88
88
F0
ENDCHAR
STARTCHAR c
ENCODING 99
SWIDTH 500 0
DWIDTH 6 0
BBX 4 6 1 0
BITMAP
60
90
80
80
90
60
ENDCHAR
STARTCHAR d
ENCODING 100
SWIDTH 583 0
DWIDTH 7 0
BBX 5 9 1 0
BITMAP
08
08
08
78
88
88
88
88
78
ENDCHAR
STARTCHAR e
ENCODING 101
SWIDTH 500 0
DWIDTH 6 0
BBX 4 6 1 0
BITMAP
60
90
E0
80
90
60
ENDCHAR
STARTCHAR f
ENCODING 102
SWIDTH 333 0
DWIDTH 4 0
BBX 4 9 0 0
BITMAP
30
40
40
F0
40
40
40
40
40
ENDCHAR
STARTCHAR g
ENCODING 103
SWIDTH 583 0
DWIDTH 7 0
BBX 5 9 1 -3
BITMAP
78
88
88
88
88
78
08
88
70
ENDCHAR
STARTCHAR h
ENCODING 104
SWIDTH 583 0
DWIDTH 7 0
BBX 5 9 1 0
BITMAP
80
80
80
B0
C8
88
88
88
88
ENDCHAR
STARTCHAR i
ENCODING 105
SWIDTH 250 0
DWIDTH 3 0
BBX 1 8 1 0
BITMAP
80
00
80
80
80
80
80
80
ENDCHAR
STARTCHAR j
ENCODING 106
SWIDTH 250 0
DWIDTH 3 0
BBX 3 11 -1 -3
BITMAP
20
00
20
20
20
20
20
20
20
20
C0
ENDCHAR
STARTCHAR k
ENCODING 107
SWIDTH 500 0
DWIDTH 6 0
BBX 5 9 1 0
BITMAP
80
80
80
98
A0
C0
A0
90
88
ENDCHAR
STARTCHAR l
ENCODING 108
SWIDTH 250 0
DWIDTH 3 0
BBX 1 9 1 0
BITMAP
80
80
80
80
80
80
80
80
80
ENDCHAR
STARTCHAR m
ENCODING 109
SWIDTH 833 0
DWIDTH 10 0
BBX 9 6 0 0
BITMAP
B300
CC80
8880
8880
8880
8880
ENDCHAR
STARTCHAR n
ENCODING 110
SWIDTH 583 0
DWIDTH 7 0
BBX 5 6 1 0
BITMAP
B0
C8
88
88
88
88
ENDCHAR
STARTCHAR o
ENCODING 111
SWIDTH 583 0
DWIDTH 7 0
BBX 5 6 1 0
BITMAP
70
88
88
88
88
70
ENDCHAR
STARTCHAR p
ENCODING 112
SWIDTH 583 0
DWIDTH 7 0
BBX 5 9 1 -3
BITMAP
F0
88
88
88
88
F0
80
80
80
ENDCHAR
STARTCHAR q
ENCODING 113
SWIDTH 583 0
DWIDTH 7 0
BBX 5 9 1 -3
BITMAP
78
88
88
88
88
78
08
08
08
ENDCHAR
STARTCHAR r
ENCODING 114
SWIDTH 333 0
DWIDTH 4 0
BBX 3 6 1 0
BITMAP
A0
C0
80
80
80
80
ENDCHAR
STARTCHAR s
ENCODING 115
SWIDTH 416 0
DWIDTH 5 0
BBX 3 6 1 0
BITMAP
60
A0
C0
20
20
C0
ENDCHAR
STARTCHAR t
ENCODING 116
SWIDTH 333 0
DWIDTH 4 0
BBX 4 8 0 0
BITMAP
40
40
F0
40
40
40
40
20
ENDCHAR
STARTCHAR u
ENCODING 117
SWIDTH 583 0
DWIDTH 7 0
BBX 5 6 1 0
BITMAP
88
88
88
88
98
68
ENDCHAR
STARTCHAR v
ENCODING 118
SWIDTH 500 0
DWIDTH 6 0
BBX 5 6 0 0
BITMAP
88
88
50
50
20
20
ENDCHAR
STARTCHAR w
ENCODING 119
SWIDTH 750 0
DWIDTH 9 0
BBX 9 6 0 0
BITMAP
8880
8880
5500
5500
2200
2200
ENDCHAR
STARTCHAR x
ENCODING 120
SWIDTH 500 0
DWIDTH 6 0
BBX 5 6 0 0
BITMAP
88
50
20
20
50
88
ENDCHAR
STARTCHAR y
ENCODING 121
SWIDTH 500 0
DWIDTH 6 0
BBX 6 9 0 -3
BITMAP
84
88
48
50
30
20
20
40
40
ENDCHAR
STARTCHAR z
ENCODING 122
SWIDTH 500 0
DWIDTH 6 0
BBX 6 6 0 0
BITMAP
FC
08
10
20
40
FC
ENDCHAR
STARTCHAR braceleft
ENCODING 123
SWIDTH 333 0
DWIDTH 4 0
BBX 3 11 1 -2
BITMAP
20
40
40
40
40
80
40
40
40
40
20
ENDCHAR
STARTCHAR bar
ENCODING 124
SWIDTH 166 0
DWIDTH 2 0
BBX 1 12 0 -3
BITMAP
80
80
80
80
80
80
80
80
80
80
80
80
ENDCHAR
STARTCHAR braceright
ENCODING 125
SWIDTH 333 0
DWIDTH 4 0
BBX 3 11 0 -2
BITMAP
80
40
40
40
40
20
40
40
40
40
80
ENDCHAR
STARTCHAR asciitilde
ENCODING 126
SWIDTH 583 0
DWIDTH 7 0
BBX 6 2 0 3
BITMAP
64
98
ENDCHAR
STARTCHAR uni00A0
ENCODING 160
SWIDTH 250 0
DWIDTH 3 0
BBX 1 1 0 0
BITMAP
00
ENDCHAR
STARTCHAR exclamdown
ENCODING 161
SWIDTH 1166 0
DWIDTH 14 0
BBX 13 9 0 1
BITMAP
1FC0
0F80
BFE8
AAB8
F558
F558
B558
B838
1FE8
ENDCHAR
STARTCHAR cent
ENCODING 162
SWIDTH 1166 0
DWIDTH 14 0
BBX 13 10 0 1
BITMAP
0600
0780
0600
0780
0600
A750
4628
0900
4F50
A628
ENDCHAR
STARTCHAR sterling
ENCODING 163
SWIDTH 1166 0
DWIDTH 14 0
BBX 13 7 0 2
BITMAP
1E00
CC18
BF70
B9E0
7EC8
3F88
3F00
ENDCHAR
STARTCHAR currency
ENCODING 164
SWIDTH 1166 0
DWIDTH 14 0
BBX 13 8 0 1
BITMAP
7070
FFF8
FFD8
8F88
FFD8
FFF8
FFF8
FFF8
ENDCHAR
STARTCHAR yen
ENCODING 165
SWIDTH 1166 0
DWIDTH 14 0
BBX 13 10 0 1
BITMAP
0060
0050
0660
1B50
6350
8300
8378
6300
1B60
0618
ENDCHAR
STARTCHAR brokenbar
ENCODING 166
SWIDTH 1166 0
DWIDTH 14 0
BBX 13 10 0 1
BITMAP
7000
4000
6300
46C0
4630
0608
F608
0630
36C0
C300
ENDCHAR
STARTCHAR section
ENCODING 167
SWIDTH 666 0
DWIDTH 8 0
BBX 7 9 0 1
BITMAP
0E
66
6A
60
60
60
90
F0
60
ENDCHAR
STARTCHAR dieresis
ENCODING 168
SWIDTH 666 0
DWIDTH 8 0
BBX 7 9 0 1
BITMAP
0A
6C
6E
60
60
60
90
F0
60
ENDCHAR
STARTCHAR copyright
ENCODING 169
SWIDTH 666 0
DWIDTH 8 0
BBX 6 9 0 1
BITMAP
40
A0
40
0C
10
10
10
10
0C
ENDCHAR
STARTCHAR ordfeminine
ENCODING 170
SWIDTH 916 0
DWIDTH 11 0
BBX 10 10 0 0
BITMAP
01C0
11C0
1800
1580
1580
1400
1100
7100
F000
6000
ENDCHAR
STARTCHAR guillemotleft
ENCODING 171
SWIDTH 916 0
DWIDTH 11 0
BBX 10 10 0 0
BITMAP
0100
1100
1800
1580
1580
1400
11C0
71C0
F000
6000
ENDCHAR
STARTCHAR logicalnot
ENCODING 172
SWIDTH 916 0
DWIDTH 11 0
BBX 10 10 0 0
BITMAP
01C0
11C0
1800
15C0
15C0
1400
11C0
71C0
F000
6000
ENDCHAR
STARTCHAR uni00AD
ENCODING 173
SWIDTH 916 0
DWIDTH 11 0
BBX 10 6 0 3
BITMAP
CC80
AA80
AA80
AC80
AA80
CAC0
ENDCHAR
STARTCHAR registered
ENCODING 174
SWIDTH 833 0
DWIDTH 4 0
BBX 4 6 0 4
BITMAP
60
60
60
90
90
60
ENDCHAR
STARTCHAR macron
ENCODING 175
SWIDTH 500 0
DWIDTH 6 0
BBX 6 1 0 9
BITMAP
FC
ENDCHAR
STARTCHAR degree
ENCODING 176
SWIDTH 333 0
DWIDTH 4 0
BBX 4 4 0 4
BITMAP
60
90
90
60
ENDCHAR
STARTCHAR plusminus
ENCODING 177
SWIDTH 500 0
DWIDTH 6 0
BBX 5 7 0 1
BITMAP
20
20
F8
20
20
00
F8
ENDCHAR
STARTCHAR uni00B2
ENCODING 178
SWIDTH 416 0
DWIDTH 5 0
BBX 4 5 0 3
BITMAP
60
90
20
40
F0
ENDCHAR
STARTCHAR uni00B3
ENCODING 179
SWIDTH 416 0
DWIDTH 5 0
BBX 4 5 0 3
BITMAP
E0
10
60
10
E0
ENDCHAR
STARTCHAR acute
ENCODING 180
SWIDTH 333 0
DWIDTH 4 0
BBX 2 2 1 6
BITMAP
40
80
ENDCHAR
STARTCHAR mu
ENCODING 181
SWIDTH 583 0
DWIDTH 7 0
BBX 5 9 1 -3
BITMAP
88
88
88
88
98
E8
80
80
80
ENDCHAR
STARTCHAR paragraph
ENCODING 182
SWIDTH 500 0
DWIDTH 6 0
BBX 6 10 0 -2
BITMAP
7C
E8
E8
E8
68
28
28
28
28
28
ENDCHAR
STARTCHAR periodcentered
ENCODING 183
SWIDTH 250 0
DWIDTH 3 0
BBX 1 2 1 3
BITMAP
80
80
ENDCHAR
STARTCHAR cedilla
ENCODING 184
SWIDTH 333 0
DWIDTH 4 0
BBX 3 3 0 -3
BITMAP
60
20
C0
ENDCHAR
STARTCHAR uni00B9
ENCODING 185
SWIDTH 416 0
DWIDTH 5 0
BBX 2 5 1 3
BITMAP
40
C0
40
40
40
ENDCHAR
STARTCHAR ordmasculine
ENCODING 186
SWIDTH 416 0
DWIDTH 5 0
BBX 4 4 0 4
BITMAP
60
90
90
60
ENDCHAR
STARTCHAR guillemotright
ENCODING 187
SWIDTH 500 0
DWIDTH 6 0
BBX 6 5 1 0
BITMAP
90
48
24
48
90
ENDCHAR
STARTCHAR onequarter
ENCODING 188
SWIDTH 750 0
DWIDTH 9 0
BBX 8 8 1 0
BITMAP
42
C4
44
4A
56
2A
2F
42
ENDCHAR
STARTCHAR onehalf
ENCODING 189
SWIDTH 750 0
DWIDTH 9 0
BBX 9 8 0 0
BITMAP
4200
C400
4400
4B00
5480
2100
2200
4780
ENDCHAR
STARTCHAR threequarters
ENCODING 190
SWIDTH 750 0
DWIDTH 9 0
BBX 9 8 0 0
BITMAP
E100
1200
6200
1500
EB00
1500
1780
2100
ENDCHAR
STARTCHAR questiondown
ENCODING 191
SWIDTH 416 0
DWIDTH 5 0
BBX 5 9 0 -3
BITMAP
10
10
00
10
70
80
80
88
70
ENDCHAR
STARTCHAR Agrave
ENCODING 192
SWIDTH 666 0
DWIDTH 8 0
BBX 7 11 0 0
BITMAP
20
10
00
10
28
28
28
44
7C
82
82
ENDCHAR
STARTCHAR Aacute
ENCODING 193
SWIDTH 666 0
DWIDTH 8 0
BBX 7 11 0 0
BITMAP
08
10
00
10
28
28
28
44
7C
82
82
ENDCHAR
STARTCHAR Acircumflex
ENCODING 194
SWIDTH 666 0
DWIDTH 8 0
BBX 7 11 0 0
BITMAP
18
24
00
10
28
28
28
44
7C
82
82
ENDCHAR
STARTCHAR Atilde
ENCODING 195
SWIDTH 666 0
DWIDTH 8 0
BBX 7 11 0 0
BITMAP
14
28
00
10
28
28
28
44
7C
82
82
ENDCHAR
STARTCHAR Adieresis
ENCODING 196
SWIDTH 666 0
DWIDTH 8 0
BBX 7 10 0 0
BITMAP
28
00
10
28
28
28
44
7C
82
82
ENDCHAR
STARTCHAR Aring
ENCODING 197
SWIDTH 666 0
DWIDTH 8 0
BBX 7 12 0 0
BITMAP
10
28
10
00
10
28
28
28
44
7C
82
82
ENDCHAR
STARTCHAR AE
ENCODING 198
SWIDTH 916 0
DWIDTH 11 0
BBX 11 8 0 0
BITMAP
03E0
0600
0A00
13C0
2200
3E00
4200
83E0
ENDCHAR
STARTCHAR Ccedilla
ENCODING 199
SWIDTH 666 0
DWIDTH 8 0
BBX 6 11 1 -3
BITMAP
38
44
80
80
80
80
44
38
10
08
30
ENDCHAR
STARTCHAR Egrave
ENCODING 200
SWIDTH 500 0
DWIDTH 6 0
BBX 5 11 1 0
BITMAP
40
20
00
F8
80
80
F0
80
80
80
F8
ENDCHAR
STARTCHAR Eacute
ENCODING 201
SWIDTH 500 0
DWIDTH 6 0
BBX 5 11 1 0
BITMAP
10
20
00
F8
80
80
F0
80
80
80
F8
ENDCHAR
STARTCHAR Ecircumflex
ENCODING 202
SWIDTH 500 0
DWIDTH 6 0
BBX 5 11 1 0
BITMAP
30
48
00
F8
80
80
F0
80
80
80
F8
ENDCHAR
STARTCHAR Edieresis
ENCODING 203
SWIDTH 500 0
DWIDTH 6 0
BBX 5 10 1 0
BITMAP
50
00
F8
80
80
F0
80
80
80
F8
ENDCHAR
STARTCHAR Igrave
ENCODING 204
SWIDTH 250 0
DWIDTH 3 0
BBX 2 11 0 0
BITMAP
80
40
00
40
40
40
40
40
40
40
40
ENDCHAR
STARTCHAR Iacute
ENCODING 205
SWIDTH 250 0
DWIDTH 3 0
BBX 2 11 1 0
BITMAP
40
80
00
80
80
80
80
80
80
80
80
ENDCHAR
STARTCHAR Icircumflex
ENCODING 206
SWIDTH 250 0
DWIDTH 3 0
BBX 4 11 0 0
BITMAP
60
90
00
40
40
40
40
40
40
40
40
ENDCHAR
STARTCHAR Idieresis
ENCODING 207
SWIDTH 250 0
DWIDTH 3 0
BBX 3 10 0 0
BITMAP
A0
00
40
40
40
40
40
40
40
40
ENDCHAR
STARTCHAR Eth
ENCODING 208
SWIDTH 666 0
DWIDTH 8 0
BBX 7 8 0 0
BITMAP
78
44
42
F2
42
42
44
78
ENDCHAR
STARTCHAR Ntilde
ENCODING 209
SWIDTH 750 0
DWIDTH 9 0
BBX 7 11 1 0
BITMAP
14
28
00
82
C2
A2
92
92
8A
86
82
ENDCHAR
STARTCHAR Ograve
ENCODING 210
SWIDTH 750 0
DWIDTH 9 0
BBX 7 11 1 0
BITMAP
20
10
00
38
44
82
82
82
82
44
38
ENDCHAR
STARTCHAR Oacute
ENCODING 211
SWIDTH 750 0
DWIDTH 9 0
BBX 7 11 1 0
BITMAP
08
10
00
38
44
82
82
82
82
44
38
ENDCHAR
STARTCHAR Ocircumflex
ENCODING 212
SWIDTH 750 0
DWIDTH 9 0
BBX 7 11 1 0
BITMAP
18
24
00
38
44
82
82
82
82
44
38
ENDCHAR
STARTCHAR Otilde
ENCODING 213
SWIDTH 750 0
DWIDTH 9 0
BBX 7 11 1 0
BITMAP
14
28
00
38
44
82
82
82
82
44
38
ENDCHAR
STARTCHAR Odieresis
ENCODING 214
SWIDTH 750 0
DWIDTH 9 0
BBX 7 10 1 0
BITMAP
28
00
38
44
82
82
82
82
44
38
ENDCHAR
STARTCHAR multiply
ENCODING 215
SWIDTH 500 0
DWIDTH 6 0
BBX 3 3 1 2
BITMAP
A0
40
A0
ENDCHAR
STARTCHAR Oslash
ENCODING 216
SWIDTH 750 0
DWIDTH 9 0
BBX 7 8 1 0
BITMAP
3A
44
8A
92
92
A2
44
B8
ENDCHAR
STARTCHAR Ugrave
ENCODING 217
SWIDTH 750 0
DWIDTH 9 0
BBX 7 11 1 0
BITMAP
20
10
00
82
82
82
82
82
82
44
38
ENDCHAR
STARTCHAR Uacute
ENCODING 218
SWIDTH 750 0
DWIDTH 9 0
BBX 7 11 1 0
BITMAP
08
10
00
82
82
82
82
82
82
44
38
ENDCHAR
STARTCHAR Ucircumflex
ENCODING 219
SWIDTH 750 0
DWIDTH 9 0
BBX 7 11 1 0
BITMAP
18
24
00
82
82
82
82
82
82
44
38
ENDCHAR
STARTCHAR Udieresis
ENCODING 220
SWIDTH 750 0
DWIDTH 9 0
BBX 7 10 1 0
BITMAP
28
00
82
82
82
82
82
82
44
38
ENDCHAR
STARTCHAR Yacute
ENCODING 221
SWIDTH 666 0
DWIDTH 8 0
BBX 7 11 0 0
BITMAP
08
10
00
82
44
44
28
10
10
10
10
ENDCHAR
STARTCHAR Thorn
ENCODING 222
SWIDTH 583 0
DWIDTH 7 0
BBX 5 8 1 0
BITMAP
80
80
F0
88
88
F0
80
80
ENDCHAR
STARTCHAR germandbls
ENCODING 223
SWIDTH 583 0
DWIDTH 7 0
BBX 5 9 1 0
BITMAP
60
90
90
90
B0
88
88
88
B0
ENDCHAR
STARTCHAR agrave
ENCODING 224
SWIDTH 583 0
DWIDTH 7 0
BBX 5 9 1 0
BITMAP
40
20
00
78
88
88
88
88
78
ENDCHAR
STARTCHAR aacute
ENCODING 225
SWIDTH 583 0
DWIDTH 7 0
BBX 5 9 1 0
BITMAP
10
20
00
78
88
88
88
88
78
ENDCHAR
STARTCHAR acircumflex
ENCODING 226
SWIDTH 583 0
DWIDTH 7 0
BBX 5 9 1 0
BITMAP
30
48
00
78
88
88
88
88
78
ENDCHAR
STARTCHAR atilde
ENCODING 227
SWIDTH 583 0
DWIDTH 7 0
BBX 5 9 1 0
BITMAP
28
50
00
78
88
88
88
88
78
ENDCHAR
STARTCHAR adieresis
ENCODING 228
SWIDTH 583 0
DWIDTH 7 0
BBX 5 8 1 0
BITMAP
50
00
78
88
88
88
88
78
ENDCHAR
STARTCHAR aring
ENCODING 229
SWIDTH 583 0
DWIDTH 7 0
BBX 5 10 1 0
BITMAP
20
50
20
00
78
88
88
88
88
78
ENDCHAR
STARTCHAR ae
ENCODING 230
SWIDTH 916 0
DWIDTH 11 0
BBX 9 6 1 0
BITMAP
7F00
8880
8980
8E00
8880
7700
ENDCHAR
STARTCHAR ccedilla
ENCODING 231
SWIDTH 500 0
DWIDTH 6 0
BBX 4 9 1 -3
BITMAP
60
90
80
80
90
60
40
20
C0
ENDCHAR
STARTCHAR egrave
ENCODING 232
SWIDTH 500 0
DWIDTH 6 0
BBX 4 9 1 0
BITMAP
40
20
00
60
90
E0
80
90
60
ENDCHAR
STARTCHAR eacute
ENCODING 233
SWIDTH 500 0
DWIDTH 6 0
BBX 4 9 1 0
BITMAP
10
20
00
60
90
E0
80
90
60
ENDCHAR
STARTCHAR ecircumflex
ENCODING 234
SWIDTH 500 0
DWIDTH 6 0
BBX 4 9 1 0
BITMAP
60
90
00
60
90
E0
80
90
60
ENDCHAR
STARTCHAR edieresis
ENCODING 235
SWIDTH 500 0
DWIDTH 6 0
BBX 4 8 1 0
BITMAP
50
00
60
90
E0
80
90
60
ENDCHAR
STARTCHAR igrave
ENCODING 236
SWIDTH 250 0
DWIDTH 3 0
BBX 2 9 0 0
BITMAP
80
40
00
40
40
40
40
40
40
ENDCHAR
STARTCHAR iacute
ENCODING 237
SWIDTH 250 0
DWIDTH 3 0
BBX 2 9 1 0
BITMAP
40
80
00
80
80
80
80
80
80
ENDCHAR
STARTCHAR icircumflex
ENCODING 238
SWIDTH 250 0
DWIDTH 3 0
BBX 4 9 0 0
BITMAP
60
90
00
40
40
40
40
40
40
ENDCHAR
STARTCHAR idieresis
ENCODING 239
SWIDTH 250 0
DWIDTH 3 0
BBX 3 8 0 0
BITMAP
A0
00
40
40
40
40
40
40
ENDCHAR
STARTCHAR eth
ENCODING 240
SWIDTH 583 0
DWIDTH 7 0
BBX 5 9 1 0
BITMAP
28
30
08
78
88
88
88
88
70
ENDCHAR
STARTCHAR ntilde
ENCODING 241
SWIDTH 583 0
DWIDTH 7 0
BBX 5 9 1 0
BITMAP
28
50
00
B0
C8
88
88
88
88
ENDCHAR
STARTCHAR ograve
ENCODING 242
SWIDTH 583 0
DWIDTH 7 0
BBX 5 9 1 0
BITMAP
40
20
00
70
88
88
88
88
70
ENDCHAR
STARTCHAR oacute
ENCODING 243
SWIDTH 583 0
DWIDTH 7 0
BBX 5 9 1 0
BITMAP
10
20
00
70
88
88
88
88
70
ENDCHAR
STARTCHAR ocircumflex
ENCODING 244
SWIDTH 583 0
DWIDTH 7 0
BBX 5 9 1 0
BITMAP
30
48
00
70
88
88
88
88
70
ENDCHAR
STARTCHAR otilde
ENCODING 245
SWIDTH 583 0
DWIDTH 7 0
BBX 5 9 1 0
BITMAP
28
50
00
70
88
88
88
88
70
ENDCHAR
STARTCHAR odieresis
ENCODING 246
SWIDTH 583 0
DWIDTH 7 0
BBX 5 8 1 0
BITMAP
50
00
70
88
88
88
88
70
ENDCHAR
STARTCHAR divide
ENCODING 247
SWIDTH 500 0
DWIDTH 6 0
BBX 5 5 0 1
BITMAP
20
00
F8
00
20
ENDCHAR
STARTCHAR oslash
ENCODING 248
SWIDTH 583 0
DWIDTH 7 0
BBX 5 6 1 0
BITMAP
78
98
A8
A8
C8
F0
ENDCHAR
STARTCHAR ugrave
ENCODING 249
SWIDTH 583 0
DWIDTH 7 0
BBX 5 9 1 0
BITMAP
40
20
00
88
88
88
88
98
68
ENDCHAR
STARTCHAR uacute
ENCODING 250
SWIDTH 583 0
DWIDTH 7 0
BBX 5 9 1 0
BITMAP
10
20
00
88
88
88
88
98
68
ENDCHAR
STARTCHAR ucircumflex
ENCODING 251
SWIDTH 583 0
DWIDTH 7 0
BBX 5 9 1 0
BITMAP
30
48
00
88
88
88
88
98
68
ENDCHAR
STARTCHAR udieresis
ENCODING 252
SWIDTH 583 0
DWIDTH 7 0
BBX 5 8 1 0
BITMAP
50
00
88
88
88
88
98
68
ENDCHAR
STARTCHAR yacute
ENCODING 253
SWIDTH 500 0
DWIDTH 6 0
BBX 6 12 0 -3
BITMAP
08
10
00
84
88
48
50
30
20
20
40
40
ENDCHAR
STARTCHAR thorn
ENCODING 254
SWIDTH 583 0
DWIDTH 7 0
BBX 5 12 1 -3
BITMAP
80
80
80
F0
88
88
88
88
F0
80
80
80
ENDCHAR
STARTCHAR ydieresis
ENCODING 255
SWIDTH 500 0
DWIDTH 6 0
BBX 6 11 0 -3
BITMAP
28
00
84
88
48
50
30
20
20
40
40
ENDCHAR
STARTCHAR Amacron
ENCODING 256
SWIDTH 666 0
DWIDTH 8 0
BBX 7 10 0 0
BITMAP
3C
00
10
28
28
28
44
7C
82
82
ENDCHAR
STARTCHAR amacron
ENCODING 257
SWIDTH 583 0
DWIDTH 7 0
BBX 5 8 1 0
BITMAP
78
00
78
88
88
88
88
78
ENDCHAR
STARTCHAR Abreve
ENCODING 258
SWIDTH 666 0
DWIDTH 8 0
BBX 7 11 0 0
BITMAP
28
38
00
10
28
28
28
44
7C
82
82
ENDCHAR
STARTCHAR abreve
ENCODING 259
SWIDTH 583 0
DWIDTH 7 0
BBX 5 9 1 0
BITMAP
50
70
00
78
88
88
88
88
78
ENDCHAR
STARTCHAR Aogonek
ENCODING 260
SWIDTH 666 0
DWIDTH 8 0
BBX 8 11 0 -3
BITMAP
10
28
28
28
44
7C
82
82
02
04
03
ENDCHAR
STARTCHAR aogonek
ENCODING 261
SWIDTH 583 0
DWIDTH 7 0
BBX 6 9 1 -3
BITMAP
78
88
88
88
88
78
18
10
0C
ENDCHAR
STARTCHAR Cacute
ENCODING 262
SWIDTH 666 0
DWIDTH 8 0
BBX 6 11 1 0
BITMAP
08
10
00
38
44
80
80
80
80
44
38
ENDCHAR
STARTCHAR cacute
ENCODING 263
SWIDTH 500 0
DWIDTH 6 0
BBX 4 9 1 0
BITMAP
10
20
00
60
90
80
80
90
60
ENDCHAR
STARTCHAR Ccaron
ENCODING 268
SWIDTH 666 0
DWIDTH 8 0
BBX 6 11 1 0
BITMAP
48
30
00
38
44
80
80
80
80
44
38
ENDCHAR
STARTCHAR ccaron
ENCODING 269
SWIDTH 500 0
DWIDTH 6 0
BBX 4 9 1 0
BITMAP
90
60
00
60
90
80
80
90
60
ENDCHAR
STARTCHAR Dcaron
ENCODING 270
SWIDTH 666 0
DWIDTH 8 0
BBX 6 11 1 0
BITMAP
90
60
00
F0
88
84
84
84
84
88
F0
ENDCHAR
STARTCHAR dcaron
ENCODING 271
SWIDTH 666 0
DWIDTH 8 0
BBX 7 9 1 0
BITMAP
0A
0A
0C
78
88
88
88
88
78
ENDCHAR
STARTCHAR Dcroat
ENCODING 272
SWIDTH 666 0
DWIDTH 8 0
BBX 7 8 0 0
BITMAP
78
44
42
F2
42
42
44
78
ENDCHAR
STARTCHAR dcroat
ENCODING 273
SWIDTH 583 0
DWIDTH 7 0
BBX 6 9 1 0
BITMAP
08
3C
08
78
88
88
88
88
78
ENDCHAR
STARTCHAR Emacron
ENCODING 274
SWIDTH 500 0
DWIDTH 6 0
BBX 5 10 1 0
BITMAP
F0
00
F8
80
80
F0
80
80
80
F8
ENDCHAR
STARTCHAR emacron
ENCODING 275
SWIDTH 500 0
DWIDTH 6 0
BBX 4 8 1 0
BITMAP
F0
00
60
90
E0
80
90
60
ENDCHAR
STARTCHAR Edotaccent
ENCODING 278
SWIDTH 500 0
DWIDTH 6 0
BBX 5 10 1 0
BITMAP
20
00
F8
80
80
F0
80
80
80
F8
ENDCHAR
STARTCHAR edotaccent
ENCODING 279
SWIDTH 500 0
DWIDTH 6 0
BBX 4 8 1 0
BITMAP
20
00
60
90
E0
80
90
60
ENDCHAR
STARTCHAR Eogonek
ENCODING 280
SWIDTH 500 0
DWIDTH 6 0
BBX 5 11 1 -3
BITMAP
F8
80
80
F0
80
80
80
F8
10
20
18
ENDCHAR
STARTCHAR eogonek
ENCODING 281
SWIDTH 500 0
DWIDTH 6 0
BBX 5 9 1 -3
BITMAP
60
90
E0
80
90
70
20
20
18
ENDCHAR
STARTCHAR Ecaron
ENCODING 282
SWIDTH 500 0
DWIDTH 6 0
BBX 5 11 1 0
BITMAP
48
30
00
F8
80
80
F0
80
80
80
F8
ENDCHAR
STARTCHAR ecaron
ENCODING 283
SWIDTH 500 0
DWIDTH 6 0
BBX 4 9 1 0
BITMAP
90
60
00
60
90
E0
80
90
60
ENDCHAR
STARTCHAR Gbreve
ENCODING 286
SWIDTH 666 0
DWIDTH 8 0
BBX 6 10 1 0
BITMAP
28
38
38
44
80
80
9C
84
44
38
ENDCHAR
STARTCHAR gbreve
ENCODING 287
SWIDTH 583 0
DWIDTH 7 0
BBX 5 11 1 -3
BITMAP
50
70
78
88
88
88
88
78
08
88
70
ENDCHAR
STARTCHAR Gcommaaccent
ENCODING 290
SWIDTH 666 0
DWIDTH 8 0
BBX 6 11 1 -3
BITMAP
38
44
80
80
9C
84
44
38
00
08
10
ENDCHAR
STARTCHAR gcommaaccent
ENCODING 291
SWIDTH 583 0
DWIDTH 7 0
BBX 5 12 1 -3
BITMAP
20
20
00
78
88
88
88
88
78
08
88
70
ENDCHAR
STARTCHAR Imacron
ENCODING 298
SWIDTH 250 0
DWIDTH 3 0
BBX 4 10 0 0
BITMAP
F0
00
40
40
40
40
40
40
40
40
ENDCHAR
STARTCHAR imacron
ENCODING 299
SWIDTH 250 0
DWIDTH 3 0
BBX 4 8 0 0
BITMAP
F0
00
40
40
40
40
40
40
ENDCHAR
STARTCHAR Iogonek
ENCODING 302
SWIDTH 250 0
DWIDTH 3 0
BBX 3 11 0 -3
BITMAP
40
40
40
40
40
40
40
40
40
80
60
ENDCHAR
STARTCHAR iogonek
ENCODING 303
SWIDTH 250 0
DWIDTH 3 0
BBX 3 11 0 -3
BITMAP
40
00
40
40
40
40
40
40
40
80
60
ENDCHAR
STARTCHAR Idotaccent
ENCODING 304
SWIDTH 250 0
DWIDTH 3 0
BBX 1 10 1 0
BITMAP
80
00
80
80
80
80
80
80
80
80
ENDCHAR
STARTCHAR dotlessi
ENCODING 305
SWIDTH 250 0
DWIDTH 3 0
BBX 1 6 1 0
BITMAP
80
80
80
80
80
80
ENDCHAR
STARTCHAR Kcommaaccent
ENCODING 310
SWIDTH 666 0
DWIDTH 8 0
BBX 7 11 1 -3
BITMAP
84
98
A0
C0
A0
90
8C
82
00
10
20
ENDCHAR
STARTCHAR kcommaaccent
ENCODING 311
SWIDTH 500 0
DWIDTH 6 0
BBX 5 12 1 -3
BITMAP
80
80
80
98
A0
C0
A0
90
88
00
20
40
ENDCHAR
STARTCHAR Lacute
ENCODING 313
SWIDTH 583 0
DWIDTH 7 0
BBX 6 11 1 0
BITMAP
10
20
00
80
80
80
80
80
80
80
FC
ENDCHAR
STARTCHAR lacute
ENCODING 314
SWIDTH 250 0
DWIDTH 3 0
BBX 2 12 1 0
BITMAP
40
80
00
80
80
80
80
80
80
80
80
80
ENDCHAR
STARTCHAR Lcommaaccent
ENCODING 315
SWIDTH 583 0
DWIDTH 7 0
BBX 6 11 1 -3
BITMAP
80
80
80
80
80
80
80
FC
00
10
20
ENDCHAR
STARTCHAR lcommaaccent
ENCODING 316
SWIDTH 250 0
DWIDTH 3 0
BBX 2 12 0 -3
BITMAP
40
40
40
40
40
40
40
40
40
00
40
80
ENDCHAR
STARTCHAR Lcaron
ENCODING 317
SWIDTH 583 0
DWIDTH 7 0
BBX 6 8 1 0
BITMAP
A0
A0
C0
80
80
80
80
FC
ENDCHAR
STARTCHAR lcaron
ENCODING 318
SWIDTH 333 0
DWIDTH 4 0
BBX 3 9 1 0
BITMAP
A0
A0
C0
80
80
80
80
80
80
ENDCHAR
STARTCHAR Lslash
ENCODING 321
SWIDTH 583 0
DWIDTH 7 0
BBX 7 8 0 0
BITMAP
40
40
50
60
40
C0
40
7E
ENDCHAR
STARTCHAR lslash
ENCODING 322
SWIDTH 250 0
DWIDTH 3 0
BBX 3 9 0 0
BITMAP
40
40
40
60
40
C0
40
40
40
ENDCHAR
STARTCHAR Nacute
ENCODING 323
SWIDTH 750 0
DWIDTH 9 0
BBX 7 11 1 0
BITMAP
08
10
00
82
C2
A2
92
92
8A
86
82
ENDCHAR
STARTCHAR nacute
ENCODING 324
SWIDTH 583 0
DWIDTH 7 0
BBX 5 9 1 0
BITMAP
08
10
00
B0
C8
88
88
88
88
ENDCHAR
STARTCHAR Ncommaaccent
ENCODING 325
SWIDTH 750 0
DWIDTH 9 0
BBX 7 11 1 -3
BITMAP
82
C2
A2
92
92
8A
86
82
00
08
10
ENDCHAR
STARTCHAR ncommaaccent
ENCODING 326
SWIDTH 583 0
DWIDTH 7 0
BBX 5 9 1 -3
BITMAP
B0
C8
88
88
88
88
00
20
40
ENDCHAR
STARTCHAR Ncaron
ENCODING 327
SWIDTH 750 0
DWIDTH 9 0
BBX 7 11 1 0
BITMAP
24
18
00
82
C2
A2
92
92
8A
86
82
ENDCHAR
STARTCHAR ncaron
ENCODING 328
SWIDTH 583 0
DWIDTH 7 0
BBX 5 9 1 0
BITMAP
48
30
00
B0
C8
88
88
88
88
ENDCHAR
STARTCHAR Omacron
ENCODING 332
SWIDTH 750 0
DWIDTH 9 0
BBX 7 10 1 0
BITMAP
3C
00
38
44
82
82
82
82
44
38
ENDCHAR
STARTCHAR omacron
ENCODING 333
SWIDTH 583 0
DWIDTH 7 0
BBX 5 8 1 0
BITMAP
78
00
70
88
88
88
88
70
ENDCHAR
STARTCHAR Ohungarumlaut
ENCODING 336
SWIDTH 750 0
DWIDTH 9 0
BBX 7 11 1 0
BITMAP
14
28
00
38
44
82
82
82
82
44
38
ENDCHAR
STARTCHAR ohungarumlaut
ENCODING 337
SWIDTH 583 0
DWIDTH 7 0
BBX 5 9 1 0
BITMAP
28
50
00
70
88
88
88
88
70
ENDCHAR
STARTCHAR OE
ENCODING 338
SWIDTH 1083 0
DWIDTH 13 0
BBX 12 8 1 0
BITMAP
3DF0
4300
8100
81E0
8100
8100
4300
3DF0
ENDCHAR
STARTCHAR oe
ENCODING 339
SWIDTH 916 0
DWIDTH 11 0
BBX 9 6 1 0
BITMAP
7700
8880
8980
8E00
8880
7700
ENDCHAR
STARTCHAR Racute
ENCODING 340
SWIDTH 583 0
DWIDTH 7 0
BBX 6 11 1 0
BITMAP
10
20
00
F0
88
88
88
F0
90
88
84
ENDCHAR
STARTCHAR racute
ENCODING 341
SWIDTH 333 0
DWIDTH 4 0
BBX 3 9 1 0
BITMAP
20
40
00
A0
C0
80
80
80
80
ENDCHAR
STARTCHAR Rcommaaccent
ENCODING 342
SWIDTH 583 0
DWIDTH 7 0
BBX 6 11 1 -3
BITMAP
F0
88
88
88
F0
90
88
84
00
10
20
ENDCHAR
STARTCHAR rcommaaccent
ENCODING 343
SWIDTH 333 0
DWIDTH 4 0
BBX 3 9 1 -3
BITMAP
A0
C0
80
80
80
80
00
40
80
ENDCHAR
STARTCHAR Rcaron
ENCODING 344
SWIDTH 583 0
DWIDTH 7 0
BBX 6 11 1 0
BITMAP
48
30
00
F0
88
88
88
F0
90
88
84
ENDCHAR
STARTCHAR rcaron
ENCODING 345
SWIDTH 333 0
DWIDTH 4 0
BBX 4 9 1 0
BITMAP
90
60
00
A0
C0
80
80
80
80
ENDCHAR
STARTCHAR Sacute
ENCODING 346
SWIDTH 500 0
DWIDTH 6 0
BBX 4 11 1 0
BITMAP
10
20
00
60
90
80
40
20
10
90
60
ENDCHAR
STARTCHAR sacute
ENCODING 347
SWIDTH 416 0
DWIDTH 5 0
BBX 3 9 1 0
BITMAP
20
40
00
60
A0
C0
20
20
C0
ENDCHAR
STARTCHAR Scedilla
ENCODING 350
SWIDTH 500 0
DWIDTH 6 0
BBX 4 11 1 -3
BITMAP
60
90
80
40
20
10
90
60
00
20
40
ENDCHAR
STARTCHAR scedilla
ENCODING 351
SWIDTH 416 0
DWIDTH 5 0
BBX 3 9 1 -3
BITMAP
60
A0
C0
20
20
C0
00
40
80
ENDCHAR
STARTCHAR Scaron
ENCODING 352
SWIDTH 500 0
DWIDTH 6 0
BBX 4 11 1 0
BITMAP
90
60
00
60
90
80
40
20
10
90
60
ENDCHAR
STARTCHAR scaron
ENCODING 353
SWIDTH 416 0
DWIDTH 5 0
BBX 4 9 1 0
BITMAP
90
60
00
60
A0
C0
20
20
C0
ENDCHAR
STARTCHAR Tcommaaccent
ENCODING 354
SWIDTH 583 0
DWIDTH 7 0
BBX 7 11 0 -3
BITMAP
FE
10
10
10
10
10
10
10
00
10
20
ENDCHAR
STARTCHAR tcommaaccent
ENCODING 355
SWIDTH 333 0
DWIDTH 4 0
BBX 4 11 0 -3
BITMAP
40
40
F0
40
40
40
40
20
00
20
40
ENDCHAR
STARTCHAR Tcaron
ENCODING 356
SWIDTH 583 0
DWIDTH 7 0
BBX 7 11 0 0
BITMAP
24
18
00
FE
10
10
10
10
10
10
10
ENDCHAR
STARTCHAR tcaron
ENCODING 357
SWIDTH 333 0
DWIDTH 4 0
BBX 4 9 0 0
BITMAP
10
50
40
F0
40
40
40
40
20
ENDCHAR
STARTCHAR Umacron
ENCODING 362
SWIDTH 750 0
DWIDTH 9 0
BBX 7 10 1 0
BITMAP
3C
00
82
82
82
82
82
82
44
38
ENDCHAR
STARTCHAR umacron
ENCODING 363
SWIDTH 583 0
DWIDTH 7 0
BBX 5 8 1 0
BITMAP
78
00
88
88
88
88
98
68
ENDCHAR
STARTCHAR Uring
ENCODING 366
SWIDTH 750 0
DWIDTH 9 0
BBX 7 12 1 0
BITMAP
10
28
10
00
82
82
82
82
82
82
44
38
ENDCHAR
STARTCHAR uring
ENCODING 367
SWIDTH 583 0
DWIDTH 7 0
BBX 5 10 1 0
BITMAP
20
50
20
00
88
88
88
88
98
68
ENDCHAR
STARTCHAR Uhungarumlaut
ENCODING 368
SWIDTH 750 0
DWIDTH 9 0
BBX 7 11 1 0
BITMAP
14
28
00
82
82
82
82
82
82
44
38
ENDCHAR
STARTCHAR uhungarumlaut
ENCODING 369
SWIDTH 583 0
DWIDTH 7 0
BBX 5 9 1 0
BITMAP
28
50
00
88
88
88
88
98
68
ENDCHAR
STARTCHAR Uogonek
ENCODING 370
SWIDTH 750 0
DWIDTH 9 0
BBX 7 11 1 -3
BITMAP
82
82
82
82
82
82
44
38
10
10
0C
ENDCHAR
STARTCHAR uogonek
ENCODING 371
SWIDTH 583 0
DWIDTH 7 0
BBX 6 9 1 -3
BITMAP
88
88
88
88
98
68
08
10
0C
ENDCHAR
STARTCHAR Ydieresis
ENCODING 376
SWIDTH 666 0
DWIDTH 8 0
BBX 7 10 0 0
BITMAP
28
00
82
44
44
28
10
10
10
10
ENDCHAR
STARTCHAR Zacute
ENCODING 377
SWIDTH 666 0
DWIDTH 8 0
BBX 7 11 0 0
BITMAP
04
08
00
7E
04
08
10
10
20
40
FE
ENDCHAR
STARTCHAR zacute
ENCODING 378
SWIDTH 500 0
DWIDTH 6 0
BBX 6 9 0 0
BITMAP
08
10
00
FC
08
10
20
40
FC
ENDCHAR
STARTCHAR Zdotaccent
ENCODING 379
SWIDTH 666 0
DWIDTH 8 0
BBX 7 10 0 0
BITMAP
08
00
7E
04
08
10
10
20
40
FE
ENDCHAR
STARTCHAR zdotaccent
ENCODING 380
SWIDTH 500 0
DWIDTH 6 0
BBX 6 8 0 0
BITMAP
10
00
FC
08
10
20
40
FC
ENDCHAR
STARTCHAR Zcaron
ENCODING 381
SWIDTH 666 0
DWIDTH 8 0
BBX 7 11 0 0
BITMAP
24
18
00
7E
04
08
10
10
20
40
FE
ENDCHAR
STARTCHAR zcaron
ENCODING 382
SWIDTH 500 0
DWIDTH 6 0
BBX 6 9 0 0
BITMAP
24
18
00
FC
08
10
20
40
FC
ENDCHAR
STARTCHAR florin
ENCODING 402
SWIDTH 416 0
DWIDTH 5 0
BBX 7 12 -1 -3
BITMAP
06
08
08
08
3C
10
10
10
20
20
20
C0
ENDCHAR
STARTCHAR circumflex
ENCODING 710
SWIDTH 333 0
DWIDTH 4 0
BBX 4 2 0 6
BITMAP
60
90
ENDCHAR
STARTCHAR caron
ENCODING 711
SWIDTH 333 0
DWIDTH 4 0
BBX 4 2 0 6
BITMAP
90
60
ENDCHAR
STARTCHAR uni02C9
ENCODING 713
SWIDTH 333 0
DWIDTH 4 0
BBX 4 1 0 7
BITMAP
F0
ENDCHAR
STARTCHAR breve
ENCODING 728
SWIDTH 333 0
DWIDTH 4 0
BBX 3 2 0 6
BITMAP
A0
E0
ENDCHAR
STARTCHAR dotaccent
ENCODING 729
SWIDTH 333 0
DWIDTH 4 0
BBX 1 1 1 7
BITMAP
80
ENDCHAR
STARTCHAR ring
ENCODING 730
SWIDTH 250 0
DWIDTH 3 0
BBX 3 3 0 6
BITMAP
40
A0
40
ENDCHAR
STARTCHAR ogonek
ENCODING 731
SWIDTH 333 0
DWIDTH 4 0
BBX 3 3 1 -3
BITMAP
40
80
60
ENDCHAR
STARTCHAR tilde
ENCODING 732
SWIDTH 333 0
DWIDTH 4 0
BBX 4 2 0 7
BITMAP
50
A0
ENDCHAR
STARTCHAR hungarumlaut
ENCODING 733
SWIDTH 333 0
DWIDTH 4 0
BBX 4 2 0 6
BITMAP
50
A0
ENDCHAR
STARTCHAR tonos
ENCODING 900
SWIDTH 333 0
DWIDTH 4 0
BBX 2 2 1 6
BITMAP
40
80
ENDCHAR
STARTCHAR dieresistonos
ENCODING 901
SWIDTH 333 0
DWIDTH 4 0
BBX 4 2 0 7
BITMAP
20
D0
ENDCHAR
STARTCHAR Alphatonos
ENCODING 902
SWIDTH 666 0
DWIDTH 8 0
BBX 7 8 0 0
BITMAP
50
A8
28
28
44
7C
82
82
ENDCHAR
STARTCHAR anoteleia
ENCODING 903
SWIDTH 250 0
DWIDTH 3 0
BBX 1 2 1 3
BITMAP
80
80
ENDCHAR
STARTCHAR Epsilontonos
ENCODING 904
SWIDTH 500 0
DWIDTH 6 0
BBX 7 8 -1 0
BITMAP
7E
A0
20
3C
20
20
20
3E
ENDCHAR
STARTCHAR Etatonos
ENCODING 905
SWIDTH 750 0
DWIDTH 9 0
BBX 9 8 -1 0
BITMAP
6080
A080
2080
3F80
2080
2080
2080
2080
ENDCHAR
STARTCHAR Iotatonos
ENCODING 906
SWIDTH 250 0
DWIDTH 3 0
BBX 3 8 -1 0
BITMAP
60
A0
20
20
20
20
20
20
ENDCHAR
STARTCHAR Omicrontonos
ENCODING 908
SWIDTH 750 0
DWIDTH 9 0
BBX 9 8 -1 0
BITMAP
4E00
9100
2080
2080
2080
2080
1100
0E00
ENDCHAR
STARTCHAR Upsilontonos
ENCODING 910
SWIDTH 666 0
DWIDTH 8 0
BBX 9 8 -2 0
BITMAP
6080
9100
1100
0A00
0400
0400
0400
0400
ENDCHAR
STARTCHAR Omegatonos
ENCODING 911
SWIDTH 750 0
DWIDTH 9 0
BBX 8 8 0 0
BITMAP
5C
A2
41
41
41
41
22
77
ENDCHAR
STARTCHAR iotadieresistonos
ENCODING 912
SWIDTH 250 0
DWIDTH 3 0
BBX 4 9 0 0
BITMAP
20
D0
00
40
40
40
40
40
20
ENDCHAR
STARTCHAR Alpha
ENCODING 913
SWIDTH 666 0
DWIDTH 8 0
BBX 7 8 0 0
BITMAP
10
28
28
28
44
7C
82
82
ENDCHAR
STARTCHAR Beta
ENCODING 914
SWIDTH 583 0
DWIDTH 7 0
BBX 5 8 1 0
BITMAP
F0
88
88
F0
88
88
88
F0
ENDCHAR
STARTCHAR Gamma
ENCODING 915
SWIDTH 500 0
DWIDTH 6 0
BBX 5 8 1 0
BITMAP
F8
80
80
80
80
80
80
80
ENDCHAR
STARTCHAR uni0394
ENCODING 916
SWIDTH 666 0
DWIDTH 8 0
BBX 7 8 0 0
BITMAP
10
28
28
28
44
44
82
FE
ENDCHAR
STARTCHAR Epsilon
ENCODING 917
SWIDTH 500 0
DWIDTH 6 0
BBX 5 8 1 0
BITMAP
F8
80
80
F0
80
80
80
F8
ENDCHAR
STARTCHAR Zeta
ENCODING 918
SWIDTH 666 0
DWIDTH 8 0
BBX 7 8 0 0
BITMAP
7E
04
08
10
10
20
40
FE
ENDCHAR
STARTCHAR Eta
ENCODING 919
SWIDTH 750 0
DWIDTH 9 0
BBX 7 8 1 0
BITMAP
82
82
82
FE
82
82
82
82
ENDCHAR
STARTCHAR Theta
ENCODING 920
SWIDTH 750 0
DWIDTH 9 0
BBX 7 8 1 0
BITMAP
38
44
82
BA
82
82
44
38
ENDCHAR
STARTCHAR Iota
ENCODING 921
SWIDTH 250 0
DWIDTH 3 0
BBX 1 8 1 0
BITMAP
80
80
80
80
80
80
80
80
ENDCHAR
STARTCHAR Kappa
ENCODING 922
SWIDTH 583 0
DWIDTH 7 0
BBX 5 8 1 0
BITMAP
88
90
A0
C0
A0
90
88
88
ENDCHAR
STARTCHAR Lambda
ENCODING 923
SWIDTH 666 0
DWIDTH 8 0
BBX 7 8 0 0
BITMAP
10
28
28
28
44
44
82
82
ENDCHAR
STARTCHAR Mu
ENCODING 924
SWIDTH 833 0
DWIDTH 10 0
BBX 7 8 1 0
BITMAP
44
44
44
AA
AA
AA
92
92
ENDCHAR
STARTCHAR Nu
ENCODING 925
SWIDTH 750 0
DWIDTH 9 0
BBX 7 8 1 0
BITMAP
82
C2
A2
92
92
8A
86
82
ENDCHAR
STARTCHAR Xi
ENCODING 926
SWIDTH 666 0
DWIDTH 8 0
BBX 6 8 1 0
BITMAP
FC
00
00
78
00
00
00
FC
ENDCHAR
STARTCHAR Omicron
ENCODING 927
SWIDTH 750 0
DWIDTH 9 0
BBX 7 8 1 0
BITMAP
38
44
82
82
82
82
44
38
ENDCHAR
STARTCHAR Pi
ENCODING 928
SWIDTH 750 0
DWIDTH 9 0
BBX 7 8 1 0
BITMAP
FE
82
82
82
82
82
82
82
ENDCHAR
STARTCHAR Rho
ENCODING 929
SWIDTH 583 0
DWIDTH 7 0
BBX 5 8 1 0
BITMAP
F0
88
88
88
F0
80
80
80
ENDCHAR
STARTCHAR Sigma
ENCODING 931
SWIDTH 583 0
DWIDTH 7 0
BBX 6 8 1 0
BITMAP
FC
40
20
10
20
20
40
FC
ENDCHAR
STARTCHAR Tau
ENCODING 932
SWIDTH 583 0
DWIDTH 7 0
BBX 7 8 0 0
BITMAP
FE
10
10
10
10
10
10
10
ENDCHAR
STARTCHAR Upsilon
ENCODING 933
SWIDTH 666 0
DWIDTH 8 0
BBX 7 8 0 0
BITMAP
82
44
44
28
10
10
10
10
ENDCHAR
STARTCHAR Phi
ENCODING 934
SWIDTH 750 0
DWIDTH 9 0
BBX 7 8 1 0
BITMAP
10
7C
92
92
92
92
7C
10
ENDCHAR
STARTCHAR Chi
ENCODING 935
SWIDTH 666 0
DWIDTH 8 0
BBX 7 8 0 0
BITMAP
82
44
28
10
10
28
44
82
ENDCHAR
STARTCHAR Psi
ENCODING 936
SWIDTH 833 0
DWIDTH 10 0
BBX 7 8 1 0
BITMAP
92
92
92
92
54
38
10
10
ENDCHAR
STARTCHAR uni03A9
ENCODING 937
SWIDTH 750 0
DWIDTH 9 0
BBX 7 8 1 0
BITMAP
38
44
82
82
82
82
44
EE
ENDCHAR
STARTCHAR Iotadieresis
ENCODING 938
SWIDTH 250 0
DWIDTH 3 0
BBX 3 10 0 0
BITMAP
A0
00
40
40
40
40
40
40
40
40
ENDCHAR
STARTCHAR Upsilondieresis
ENCODING 939
SWIDTH 666 0
DWIDTH 8 0
BBX 7 10 0 0
BITMAP
28
00
82
44
44
28
10
10
10
10
ENDCHAR
STARTCHAR alphatonos
ENCODING 940
SWIDTH 583 0
DWIDTH 7 0
BBX 5 9 1 0
BITMAP
10
20
00
78
88
88
88
88
78
ENDCHAR
STARTCHAR epsilontonos
ENCODING 941
SWIDTH 500 0
DWIDTH 6 0
BBX 4 9 1 0
BITMAP
10
20
00
60
90
E0
80
90
60
ENDCHAR
STARTCHAR etatonos
ENCODING 942
SWIDTH 583 0
DWIDTH 7 0
BBX 5 12 1 -3
BITMAP
10
20
00
B0
C8
88
88
88
88
08
08
08
ENDCHAR
STARTCHAR iotatonos
ENCODING 943
SWIDTH 250 0
DWIDTH 3 0
BBX 2 9 1 0
BITMAP
40
80
00
80
80
80
80
80
40
ENDCHAR
STARTCHAR upsilondieresistonos
ENCODING 944
SWIDTH 583 0
DWIDTH 7 0
BBX 5 9 1 0
BITMAP
10
68
00
88
88
88
88
88
70
ENDCHAR
STARTCHAR alpha
ENCODING 945
SWIDTH 583 0
DWIDTH 7 0
BBX 5 6 1 0
BITMAP
78
88
88
88
88
78
ENDCHAR
STARTCHAR beta
ENCODING 946
SWIDTH 583 0
DWIDTH 7 0
BBX 5 12 1 -3
BITMAP
60
90
90
90
B0
88
88
88
F0
80
80
80
ENDCHAR
STARTCHAR gamma
ENCODING 947
SWIDTH 500 0
DWIDTH 6 0
BBX 5 9 0 -3
BITMAP
88
88
50
50
20
20
20
20
20
ENDCHAR
STARTCHAR delta
ENCODING 948
SWIDTH 583 0
DWIDTH 7 0
BBX 5 9 1 0
BITMAP
30
40
20
70
88
88
88
88
70
ENDCHAR
STARTCHAR epsilon
ENCODING 949
SWIDTH 500 0
DWIDTH 6 0
BBX 4 6 1 0
BITMAP
60
90
E0
80
90
60
ENDCHAR
STARTCHAR zeta
ENCODING 950
SWIDTH 416 0
DWIDTH 5 0
BBX 4 11 1 -2
BITMAP
F0
20
40
40
80
80
80
80
70
10
20
ENDCHAR
STARTCHAR eta
ENCODING 951
SWIDTH 583 0
DWIDTH 7 0
BBX 5 9 1 -3
BITMAP
B0
C8
88
88
88
88
08
08
08
ENDCHAR
STARTCHAR theta
ENCODING 952
SWIDTH 583 0
DWIDTH 7 0
BBX 5 9 1 0
BITMAP
70
88
88
88
F8
88
88
88
70
ENDCHAR
STARTCHAR iota
ENCODING 953
SWIDTH 250 0
DWIDTH 3 0
BBX 2 6 1 0
BITMAP
80
80
80
80
80
40
ENDCHAR
STARTCHAR kappa
ENCODING 954
SWIDTH 500 0
DWIDTH 6 0
BBX 5 6 1 0
BITMAP
98
A0
C0
A0
90
88
ENDCHAR
STARTCHAR lambda
ENCODING 955
SWIDTH 500 0
DWIDTH 6 0
BBX 6 9 0 0
BITMAP
40
40
20
20
30
50
48
48
84
ENDCHAR
STARTCHAR uni03BC
ENCODING 956
SWIDTH 583 0
DWIDTH 7 0
BBX 5 9 1 -3
BITMAP
88
88
88
88
98
E8
80
80
80
ENDCHAR
STARTCHAR nu
ENCODING 957
SWIDTH 500 0
DWIDTH 6 0
BBX 5 6 0 0
BITMAP
88
88
50
50
20
20
ENDCHAR
STARTCHAR xi
ENCODING 958
SWIDTH 416 0
DWIDTH 5 0
BBX 4 11 1 -2
BITMAP
60
90
90
80
60
80
80
80
70
10
20
ENDCHAR
STARTCHAR omicron
ENCODING 959
SWIDTH 583 0
DWIDTH 7 0
BBX 5 6 1 0
BITMAP
70
88
88
88
88
70
ENDCHAR
STARTCHAR pi
ENCODING 960
SWIDTH 583 0
DWIDTH 7 0
BBX 7 6 0 0
BITMAP
FE
44
44
44
44
42
ENDCHAR
STARTCHAR rho
ENCODING 961
SWIDTH 583 0
DWIDTH 7 0
BBX 5 9 1 -3
BITMAP
70
88
88
88
88
F0
80
80
80
ENDCHAR
STARTCHAR sigma1
ENCODING 962
SWIDTH 500 0
DWIDTH 6 0
BBX 4 8 1 -2
BITMAP
60
90
80
80
80
70
10
20
ENDCHAR
STARTCHAR sigma
ENCODING 963
SWIDTH 583 0
DWIDTH 7 0
BBX 6 6 1 0
BITMAP
7C
88
88
88
88
70
ENDCHAR
STARTCHAR tau
ENCODING 964
SWIDTH 416 0
DWIDTH 5 0
BBX 5 6 0 0
BITMAP
F8
20
20
20
20
10
ENDCHAR
STARTCHAR upsilon
ENCODING 965
SWIDTH 583 0
DWIDTH 7 0
BBX 5 6 1 0
BITMAP
88
88
88
88
88
70
ENDCHAR
STARTCHAR phi
ENCODING 966
SWIDTH 583 0
DWIDTH 7 0
BBX 5 12 1 -3
BITMAP
20
20
20
70
A8
A8
A8
A8
70
20
20
20
ENDCHAR
STARTCHAR chi
ENCODING 967
SWIDTH 416 0
DWIDTH 5 0
BBX 5 9 0 -3
BITMAP
88
88
50
50
20
50
50
88
88
ENDCHAR
STARTCHAR psi
ENCODING 968
SWIDTH 666 0
DWIDTH 8 0
BBX 7 12 0 -3
BITMAP
10
10
10
92
92
92
92
92
7C
10
10
10
ENDCHAR
STARTCHAR omega
ENCODING 969
SWIDTH 750 0
DWIDTH 9 0
BBX 7 6 1 0
BITMAP
44
92
92
92
92
6C
ENDCHAR
STARTCHAR iotadieresis
ENCODING 970
SWIDTH 250 0
DWIDTH 3 0
BBX 3 8 0 0
BITMAP
A0
00
40
40
40
40
40
20
ENDCHAR
STARTCHAR upsilondieresis
ENCODING 971
SWIDTH 583 0
DWIDTH 7 0
BBX 5 8 1 0
BITMAP
50
00
88
88
88
88
88
70
ENDCHAR
STARTCHAR omicrontonos
ENCODING 972
SWIDTH 583 0
DWIDTH 7 0
BBX 5 9 1 0
BITMAP
10
20
00
70
88
88
88
88
70
ENDCHAR
STARTCHAR upsilontonos
ENCODING 973
SWIDTH 583 0
DWIDTH 7 0
BBX 5 9 1 0
BITMAP
10
20
00
88
88
88
88
88
70
ENDCHAR
STARTCHAR omegatonos
ENCODING 974
SWIDTH 750 0
DWIDTH 9 0
BBX 7 9 1 0
BITMAP
08
10
00
44
92
92
92
92
6C
ENDCHAR
STARTCHAR uni03CF
ENCODING 975
SWIDTH 333 0
DWIDTH 4 0
BBX 3 1 0 7
BITMAP
A0
ENDCHAR
STARTCHAR afii10023
ENCODING 1025
SWIDTH 500 0
DWIDTH 6 0
BBX 5 10 1 0
BITMAP
50
00
F8
80
80
F0
80
80
80
F8
ENDCHAR
STARTCHAR afii10051
ENCODING 1026
SWIDTH 750 0
DWIDTH 9 0
BBX 8 8 0 0
BITMAP
F8
20
20
2E
31
21
21
2E
ENDCHAR
STARTCHAR afii10052
ENCODING 1027
SWIDTH 500 0
DWIDTH 6 0
BBX 5 11 1 0
BITMAP
10
20
00
F8
80
80
80
80
80
80
80
ENDCHAR
STARTCHAR afii10053
ENCODING 1028
SWIDTH 666 0
DWIDTH 8 0
BBX 6 8 1 0
BITMAP
38
44
80
F8
80
80
44
38
ENDCHAR
STARTCHAR afii10054
ENCODING 1029
SWIDTH 500 0
DWIDTH 6 0
BBX 4 8 1 0
BITMAP
60
90
80
40
20
10
90
60
ENDCHAR
STARTCHAR afii10055
ENCODING 1030
SWIDTH 250 0
DWIDTH 3 0
BBX 1 8 1 0
BITMAP
80
80
80
80
80
80
80
80
ENDCHAR
STARTCHAR afii10056
ENCODING 1031
SWIDTH 250 0
DWIDTH 3 0
BBX 3 10 0 0
BITMAP
A0
00
40
40
40
40
40
40
40
40
ENDCHAR
STARTCHAR afii10057
ENCODING 1032
SWIDTH 416 0
DWIDTH 5 0
BBX 4 8 0 0
BITMAP
10
10
10
10
10
10
10
E0
ENDCHAR
STARTCHAR afii10058
ENCODING 1033
SWIDTH 1083 0
DWIDTH 13 0
BBX 11 8 1 0
BITMAP
7E00
4200
4200
43C0
4220
4220
4220
83C0
ENDCHAR
STARTCHAR afii10059
ENCODING 1034
SWIDTH 916 0
DWIDTH 11 0
BBX 9 8 1 0
BITMAP
8800
8800
8800
FF00
8880
8880
8880
8F00
ENDCHAR
STARTCHAR afii10060
ENCODING 1035
SWIDTH 750 0
DWIDTH 9 0
BBX 8 8 0 0
BITMAP
F8
20
20
3E
21
21
21
21
ENDCHAR
STARTCHAR afii10061
ENCODING 1036
SWIDTH 666 0
DWIDTH 8 0
BBX 6 11 1 0
BITMAP
10
20
00
8C
90
A0
E0
90
90
88
84
ENDCHAR
STARTCHAR afii10062
ENCODING 1038
SWIDTH 666 0
DWIDTH 8 0
BBX 8 11 0 0
BITMAP
24
18
00
81
42
22
24
18
08
10
E0
ENDCHAR
STARTCHAR afii10145
ENCODING 1039
SWIDTH 750 0
DWIDTH 9 0
BBX 7 10 1 -2
BITMAP
82
82
82
82
82
82
82
FE
10
20
ENDCHAR
STARTCHAR afii10017
ENCODING 1040
SWIDTH 666 0
DWIDTH 8 0
BBX 7 8 0 0
BITMAP
10
28
28
28
44
7C
82
82
ENDCHAR
STARTCHAR afii10018
ENCODING 1041
SWIDTH 583 0
DWIDTH 7 0
BBX 5 8 1 0
BITMAP
F0
80
80
F0
88
88
88
F0
ENDCHAR
STARTCHAR afii10019
ENCODING 1042
SWIDTH 583 0
DWIDTH 7 0
BBX 5 8 1 0
BITMAP
F0
88
88
F0
88
88
88
F0
ENDCHAR
STARTCHAR afii10020
ENCODING 1043
SWIDTH 500 0
DWIDTH 6 0
BBX 5 8 1 0
BITMAP
F8
80
80
80
80
80
80
80
ENDCHAR
STARTCHAR afii10021
ENCODING 1044
SWIDTH 666 0
DWIDTH 8 0
BBX 8 10 0 -2
BITMAP
3E
42
42
42
42
42
42
FF
81
81
ENDCHAR
STARTCHAR afii10022
ENCODING 1045
SWIDTH 500 0
DWIDTH 6 0
BBX 5 8 1 0
BITMAP
F8
80
80
F0
80
80
80
F8
ENDCHAR
STARTCHAR afii10024
ENCODING 1046
SWIDTH 1000 0
DWIDTH 12 0
BBX 9 8 1 0
BITMAP
C980
2A00
2A00
1C00
2A00
4900
4900
8880
ENDCHAR
STARTCHAR afii10025
ENCODING 1047
SWIDTH 583 0
DWIDTH 7 0
BBX 5 8 1 0
BITMAP
70
88
08
30
08
08
88
70
ENDCHAR
STARTCHAR afii10026
ENCODING 1048
SWIDTH 750 0
DWIDTH 9 0
BBX 7 8 1 0
BITMAP
82
86
8A
92
92
A2
C2
82
ENDCHAR
STARTCHAR afii10027
ENCODING 1049
SWIDTH 750 0
DWIDTH 9 0
BBX 7 11 1 0
BITMAP
24
18
00
82
86
8A
92
92
A2
C2
82
ENDCHAR
STARTCHAR afii10028
ENCODING 1050
SWIDTH 666 0
DWIDTH 7 0
BBX 5 8 1 0
BITMAP
88
90
A0
C0
A0
90
88
88
ENDCHAR
STARTCHAR afii10029
ENCODING 1051
SWIDTH 666 0
DWIDTH 8 0
BBX 6 8 1 0
BITMAP
7C
44
44
44
44
44
44
84
ENDCHAR
STARTCHAR afii10030
ENCODING 1052
SWIDTH 833 0
DWIDTH 10 0
BBX 7 8 1 0
BITMAP
44
44
44
AA
AA
AA
92
92
ENDCHAR
STARTCHAR afii10031
ENCODING 1053
SWIDTH 750 0
DWIDTH 9 0
BBX 7 8 1 0
BITMAP
82
82
82
FE
82
82
82
82
ENDCHAR
STARTCHAR afii10032
ENCODING 1054
SWIDTH 750 0
DWIDTH 9 0
BBX 7 8 1 0
BITMAP
38
44
82
82
82
82
44
38
ENDCHAR
STARTCHAR afii10033
ENCODING 1055
SWIDTH 750 0
DWIDTH 9 0
BBX 7 8 1 0
BITMAP
FE
82
82
82
82
82
82
82
ENDCHAR
STARTCHAR afii10034
ENCODING 1056
SWIDTH 583 0
DWIDTH 7 0
BBX 5 8 1 0
BITMAP
F0
88
88
88
F0
80
80
80
ENDCHAR
STARTCHAR afii10035
ENCODING 1057
SWIDTH 666 0
DWIDTH 8 0
BBX 6 8 1 0
BITMAP
38
44
80
80
80
80
44
38
ENDCHAR
STARTCHAR afii10036
ENCODING 1058
SWIDTH 583 0
DWIDTH 7 0
BBX 7 8 0 0
BITMAP
FE
10
10
10
10
10
10
10
ENDCHAR
STARTCHAR afii10037
ENCODING 1059
SWIDTH 583 0
DWIDTH 7 0
BBX 6 9 0 -1
BITMAP
84
84
44
48
28
10
10
10
60
ENDCHAR
STARTCHAR afii10038
ENCODING 1060
SWIDTH 750 0
DWIDTH 9 0
BBX 7 8 1 0
BITMAP
10
7C
92
92
92
92
7C
10
ENDCHAR
STARTCHAR afii10039
ENCODING 1061
SWIDTH 666 0
DWIDTH 8 0
BBX 7 8 0 0
BITMAP
82
44
28
10
10
28
44
82
ENDCHAR
STARTCHAR afii10040
ENCODING 1062
SWIDTH 666 0
DWIDTH 8 0
BBX 6 10 1 -2
BITMAP
88
88
88
88
88
88
88
FC
04
04
ENDCHAR
STARTCHAR afii10041
ENCODING 1063
SWIDTH 666 0
DWIDTH 8 0
BBX 6 8 1 0
BITMAP
84
84
84
84
7C
04
04
04
ENDCHAR
STARTCHAR afii10042
ENCODING 1064
SWIDTH 916 0
DWIDTH 11 0
BBX 9 8 1 0
BITMAP
8880
8880
8880
8880
8880
8880
8880
FF80
ENDCHAR
STARTCHAR afii10043
ENCODING 1065
SWIDTH 916 0
DWIDTH 11 0
BBX 10 10 1 -2
BITMAP
8880
8880
8880
8880
8880
8880
8880
FFC0
0080
0100
ENDCHAR
STARTCHAR afii10044
ENCODING 1066
SWIDTH 750 0
DWIDTH 9 0
BBX 8 8 0 0
BITMAP
F0
10
10
1E
11
11
11
1E
ENDCHAR
STARTCHAR afii10045
ENCODING 1067
SWIDTH 833 0
DWIDTH 10 0
BBX 8 8 1 0
BITMAP
81
81
81
F1
89
89
89
F1
ENDCHAR
STARTCHAR afii10046
ENCODING 1068
SWIDTH 583 0
DWIDTH 7 0
BBX 5 8 1 0
BITMAP
80
80
80
F0
88
88
88
F0
ENDCHAR
STARTCHAR afii10047
ENCODING 1069
SWIDTH 666 0
DWIDTH 8 0
BBX 6 8 1 0
BITMAP
70
88
04
7C
04
04
88
70
ENDCHAR
STARTCHAR afii10048
ENCODING 1070
SWIDTH 1000 0
DWIDTH 12 0
BBX 10 8 1 0
BITMAP
8700
8880
9040
F040
9040
9040
8880
8700
ENDCHAR
STARTCHAR afii10049
ENCODING 1071
SWIDTH 583 0
DWIDTH 7 0
BBX 6 8 0 0
BITMAP
3C
44
44
44
3C
24
44
84
ENDCHAR
STARTCHAR afii10065
ENCODING 1072
SWIDTH 583 0
DWIDTH 7 0
BBX 5 6 1 0
BITMAP
78
88
88
88
88
78
ENDCHAR
STARTCHAR afii10066
ENCODING 1073
SWIDTH 583 0
DWIDTH 7 0
BBX 5 9 1 0
BITMAP
08
70
80
F0
88
88
88
88
70
ENDCHAR
STARTCHAR afii10067
ENCODING 1074
SWIDTH 500 0
DWIDTH 6 0
BBX 4 6 1 0
BITMAP
E0
90
E0
90
90
E0
ENDCHAR
STARTCHAR afii10068
ENCODING 1075
SWIDTH 333 0
DWIDTH 4 0
BBX 3 6 1 0
BITMAP
E0
80
80
80
80
80
ENDCHAR
STARTCHAR afii10069
ENCODING 1076
SWIDTH 500 0
DWIDTH 6 0
BBX 6 8 0 -2
BITMAP
38
48
48
48
48
78
84
84
ENDCHAR
STARTCHAR afii10070
ENCODING 1077
SWIDTH 500 0
DWIDTH 6 0
BBX 4 6 1 0
BITMAP
60
90
E0
80
90
60
ENDCHAR
STARTCHAR afii10072
ENCODING 1078
SWIDTH 750 0
DWIDTH 9 0
BBX 7 6 1 0
BITMAP
92
54
38
54
54
92
ENDCHAR
STARTCHAR afii10073
ENCODING 1079
SWIDTH 500 0
DWIDTH 6 0
BBX 4 6 1 0
BITMAP
E0
10
60
10
10
E0
ENDCHAR
STARTCHAR afii10074
ENCODING 1080
SWIDTH 583 0
DWIDTH 7 0
BBX 5 6 1 0
BITMAP
88
98
A8
A8
C8
88
ENDCHAR
STARTCHAR afii10075
ENCODING 1081
SWIDTH 583 0
DWIDTH 7 0
BBX 5 9 1 0
BITMAP
48
30
00
88
98
A8
A8
C8
88
ENDCHAR
STARTCHAR afii10076
ENCODING 1082
SWIDTH 500 0
DWIDTH 6 0
BBX 4 6 1 0
BITMAP
90
A0
C0
A0
A0
90
ENDCHAR
STARTCHAR afii10077
ENCODING 1083
SWIDTH 500 0
DWIDTH 6 0
BBX 5 6 0 0
BITMAP
78
48
48
48
48
88
ENDCHAR
STARTCHAR afii10078
ENCODING 1084
SWIDTH 666 0
DWIDTH 8 0
BBX 7 6 0 0
BITMAP
44
44
AA
AA
AA
92
ENDCHAR
STARTCHAR afii10079
ENCODING 1085
SWIDTH 583 0
DWIDTH 7 0
BBX 5 6 1 0
BITMAP
88
88
F8
88
88
88
ENDCHAR
STARTCHAR afii10080
ENCODING 1086
SWIDTH 583 0
DWIDTH 7 0
BBX 5 6 1 0
BITMAP
70
88
88
88
88
70
ENDCHAR
STARTCHAR afii10081
ENCODING 1087
SWIDTH 583 0
DWIDTH 7 0
BBX 5 6 1 0
BITMAP
F8
88
88
88
88
88
ENDCHAR
STARTCHAR afii10082
ENCODING 1088
SWIDTH 583 0
DWIDTH 7 0
BBX 5 9 1 -3
BITMAP
F0
88
88
88
88
F0
80
80
80
ENDCHAR
STARTCHAR afii10083
ENCODING 1089
SWIDTH 500 0
DWIDTH 6 0
BBX 4 6 1 0
BITMAP
60
90
80
80
90
60
ENDCHAR
STARTCHAR afii10084
ENCODING 1090
SWIDTH 416 0
DWIDTH 5 0
BBX 5 6 0 0
BITMAP
F8
20
20
20
20
20
ENDCHAR
STARTCHAR afii10085
ENCODING 1091
SWIDTH 500 0
DWIDTH 6 0
BBX 6 9 0 -3
BITMAP
84
88
48
50
30
20
20
40
40
ENDCHAR
STARTCHAR afii10086
ENCODING 1092
SWIDTH 583 0
DWIDTH 7 0
BBX 5 12 1 -3
BITMAP
20
20
20
70
A8
A8
A8
A8
70
20
20
20
ENDCHAR
STARTCHAR afii10087
ENCODING 1093
SWIDTH 500 0
DWIDTH 6 0
BBX 5 6 0 0
BITMAP
88
50
20
20
50
88
ENDCHAR
STARTCHAR afii10088
ENCODING 1094
SWIDTH 583 0
DWIDTH 7 0
BBX 6 8 1 -2
BITMAP
88
88
88
88
88
FC
08
10
ENDCHAR
STARTCHAR afii10089
ENCODING 1095
SWIDTH 500 0
DWIDTH 6 0
BBX 4 6 1 0
BITMAP
90
90
90
70
10
10
ENDCHAR
STARTCHAR afii10090
ENCODING 1096
SWIDTH 833 0
DWIDTH 10 0
BBX 7 6 1 0
BITMAP
92
92
92
92
92
FE
ENDCHAR
STARTCHAR afii10091
ENCODING 1097
SWIDTH 833 0
DWIDTH 10 0
BBX 8 8 1 -2
BITMAP
92
92
92
92
92
FF
02
04
ENDCHAR
STARTCHAR afii10092
ENCODING 1098
SWIDTH 583 0
DWIDTH 7 0
BBX 6 6 0 0
BITMAP
E0
20
38
24
24
38
ENDCHAR
STARTCHAR afii10093
ENCODING 1099
SWIDTH 750 0
DWIDTH 9 0
BBX 7 6 1 0
BITMAP
82
82
E2
92
92
E2
ENDCHAR
STARTCHAR afii10094
ENCODING 1100
SWIDTH 500 0
DWIDTH 6 0
BBX 4 6 1 0
BITMAP
80
80
E0
90
90
E0
ENDCHAR
STARTCHAR afii10095
ENCODING 1101
SWIDTH 500 0
DWIDTH 6 0
BBX 4 6 1 0
BITMAP
60
90
70
10
90
60
ENDCHAR
STARTCHAR afii10096
ENCODING 1102
SWIDTH 833 0
DWIDTH 10 0
BBX 8 6 1 0
BITMAP
8E
91
F1
91
91
8E
ENDCHAR
STARTCHAR afii10097
ENCODING 1103
SWIDTH 500 0
DWIDTH 6 0
BBX 5 6 0 0
BITMAP
38
48
48
38
48
88
ENDCHAR
STARTCHAR afii10071
ENCODING 1105
SWIDTH 500 0
DWIDTH 6 0
BBX 4 8 1 0
BITMAP
50
00
60
90
E0
80
90
60
ENDCHAR
STARTCHAR afii10099
ENCODING 1106
SWIDTH 583 0
DWIDTH 7 0
BBX 6 12 0 -3
BITMAP
40
F8
40
58
64
44
44
44
44
04
04
18
ENDCHAR
STARTCHAR afii10100
ENCODING 1107
SWIDTH 333 0
DWIDTH 4 0
BBX 3 9 1 0
BITMAP
20
40
00
E0
80
80
80
80
80
ENDCHAR
STARTCHAR afii10101
ENCODING 1108
SWIDTH 500 0
DWIDTH 6 0
BBX 4 6 1 0
BITMAP
60
90
E0
80
90
60
ENDCHAR
STARTCHAR afii10102
ENCODING 1109
SWIDTH 416 0
DWIDTH 5 0
BBX 3 6 1 0
BITMAP
60
A0
C0
20
20
C0
ENDCHAR
STARTCHAR afii10103
ENCODING 1110
SWIDTH 250 0
DWIDTH 3 0
BBX 1 8 1 0
BITMAP
80
00
80
80
80
80
80
80
ENDCHAR
STARTCHAR afii10104
ENCODING 1111
SWIDTH 250 0
DWIDTH 3 0
BBX 3 8 0 0
BITMAP
A0
00
40
40
40
40
40
40
ENDCHAR
STARTCHAR afii10105
ENCODING 1112
SWIDTH 250 0
DWIDTH 3 0
BBX 3 11 -1 -3
BITMAP
20
00
20
20
20
20
20
20
20
20
C0
ENDCHAR
STARTCHAR afii10106
ENCODING 1113
SWIDTH 833 0
DWIDTH 10 0
BBX 8 6 1 0
BITMAP
78
48
4E
49
49
8E
ENDCHAR
STARTCHAR afii10107
ENCODING 1114
SWIDTH 833 0
DWIDTH 10 0
BBX 8 6 1 0
BITMAP
88
88
FE
89
89
8E
ENDCHAR
STARTCHAR afii10108
ENCODING 1115
SWIDTH 583 0
DWIDTH 7 0
BBX 6 9 0 0
BITMAP
40
F8
40
58
64
44
44
44
44
ENDCHAR
STARTCHAR afii10109
ENCODING 1116
SWIDTH 500 0
DWIDTH 6 0
BBX 4 9 1 0
BITMAP
20
40
00
90
A0
C0
A0
A0
90
ENDCHAR
STARTCHAR afii10110
ENCODING 1118
SWIDTH 500 0
DWIDTH 6 0
BBX 6 12 0 -3
BITMAP
48
30
00
84
88
48
50
30
20
20
40
40
ENDCHAR
STARTCHAR afii10193
ENCODING 1119
SWIDTH 583 0
DWIDTH 7 0
BBX 5 8 1 -2
BITMAP
88
88
88
88
88
F8
20
40
ENDCHAR
STARTCHAR afii10050
ENCODING 1168
SWIDTH 500 0
DWIDTH 6 0
BBX 5 10 1 0
BITMAP
08
08
F8
80
80
80
80
80
80
80
ENDCHAR
STARTCHAR afii10098
ENCODING 1169
SWIDTH 416 0
DWIDTH 5 0
BBX 4 8 1 0
BITMAP
10
10
F0
80
80
80
80
80
ENDCHAR
STARTCHAR endash
ENCODING 8211
SWIDTH 500 0
DWIDTH 6 0
BBX 6 1 0 2
BITMAP
FC
ENDCHAR
STARTCHAR emdash
ENCODING 8212
SWIDTH 1000 0
DWIDTH 12 0
BBX 12 1 0 2
BITMAP
FFF0
ENDCHAR
STARTCHAR afii00208
ENCODING 8213
SWIDTH 1000 0
DWIDTH 12 0
BBX 10 1 1 2
BITMAP
FFC0
ENDCHAR
STARTCHAR quoteleft
ENCODING 8216
SWIDTH 250 0
DWIDTH 3 0
BBX 2 4 1 5
BITMAP
40
80
80
80
ENDCHAR
STARTCHAR quoteright
ENCODING 8217
SWIDTH 250 0
DWIDTH 3 0
BBX 2 4 0 5
BITMAP
40
40
40
80
ENDCHAR
STARTCHAR quotesinglbase
ENCODING 8218
SWIDTH 250 0
DWIDTH 3 0
BBX 2 4 0 -2
BITMAP
40
40
40
80
ENDCHAR
STARTCHAR quotedblleft
ENCODING 8220
SWIDTH 500 0
DWIDTH 6 0
BBX 4 4 2 5
BITMAP
50
A0
A0
A0
ENDCHAR
STARTCHAR quotedblright
ENCODING 8221
SWIDTH 500 0
DWIDTH 6 0
BBX 4 4 0 5
BITMAP
50
50
50
A0
ENDCHAR
STARTCHAR quotedblbase
ENCODING 8222
SWIDTH 500 0
DWIDTH 6 0
BBX 4 4 0 -2
BITMAP
50
50
50
A0
ENDCHAR
STARTCHAR dagger
ENCODING 8224
SWIDTH 500 0
DWIDTH 6 0
BBX 5 12 0 -3
BITMAP
20
20
20
F8
20
20
20
20
20
20
20
20
ENDCHAR
STARTCHAR daggerdbl
ENCODING 8225
SWIDTH 500 0
DWIDTH 6 0
BBX 5 12 0 -3
BITMAP
20
20
20
F8
20
20
F8
20
20
20
20
20
ENDCHAR
STARTCHAR bullet
ENCODING 8226
SWIDTH 500 0
DWIDTH 6 0
BBX 4 4 1 2
BITMAP
60
F0
F0
60
ENDCHAR
STARTCHAR ellipsis
ENCODING 8230
SWIDTH 1000 0
DWIDTH 12 0
BBX 9 2 1 0
BITMAP
8880
8880
ENDCHAR
STARTCHAR perthousand
ENCODING 8240
SWIDTH 1083 0
DWIDTH 13 0
BBX 12 8 0 0
BITMAP
6400
9800
9800
7000
1C60
3290
3290
4C60
ENDCHAR
STARTCHAR guilsinglleft
ENCODING 8249
SWIDTH 333 0
DWIDTH 4 0
BBX 3 5 0 0
BITMAP
20
40
80
40
20
ENDCHAR
STARTCHAR guilsinglright
ENCODING 8250
SWIDTH 333 0
DWIDTH 4 0
BBX 3 5 1 0
BITMAP
80
40
20
40
80
ENDCHAR
STARTCHAR Euro
ENCODING 8364
SWIDTH 666 0
DWIDTH 8 0
BBX 7 8 0 0
BITMAP
1C
62
FC
40
FC
40
22
1C
ENDCHAR
STARTCHAR afii61352
ENCODING 8470
SWIDTH 1000 0
DWIDTH 12 0
BBX 10 8 1 0
BITMAP
8800
8800
C980
AA40
AA40
9980
8800
8BC0
ENDCHAR
STARTCHAR trademark
ENCODING 8482
SWIDTH 916 0
DWIDTH 11 0
BBX 10 5 0 3
BITMAP
FC40
26C0
26C0
2540
2540
ENDCHAR
STARTCHAR Omega
ENCODING 8486
SWIDTH 500 0
DWIDTH 6 0
BBX 4 4 1 2
BITMAP
E0
F0
F0
E0
ENDCHAR
STARTCHAR partialdiff
ENCODING 8706
SWIDTH 500 0
DWIDTH 6 0
BBX 4 4 1 2
BITMAP
E0
F0
F0
E0
ENDCHAR
STARTCHAR Delta
ENCODING 8710
SWIDTH 500 0
DWIDTH 6 0
BBX 4 4 1 2
BITMAP
E0
F0
F0
E0
ENDCHAR
STARTCHAR product
ENCODING 8719
SWIDTH 500 0
DWIDTH 6 0
BBX 4 4 1 2
BITMAP
E0
F0
F0
E0
ENDCHAR
STARTCHAR summation
ENCODING 8721
SWIDTH 500 0
DWIDTH 6 0
BBX 4 4 1 2
BITMAP
E0
F0
F0
E0
ENDCHAR
STARTCHAR minus
ENCODING 8722
SWIDTH 500 0
DWIDTH 6 0
BBX 4 1 1 3
BITMAP
F0
ENDCHAR
STARTCHAR uni2215
ENCODING 8725
SWIDTH 83 0
DWIDTH 1 0
BBX 6 8 -3 0
BITMAP
04
08
08
10
20
40
40
80
ENDCHAR
STARTCHAR uni2219
ENCODING 8729
SWIDTH 250 0
DWIDTH 3 0
BBX 1 2 1 3
BITMAP
80
80
ENDCHAR
STARTCHAR radical
ENCODING 8730
SWIDTH 500 0
DWIDTH 6 0
BBX 4 4 1 2
BITMAP
E0
F0
F0
E0
ENDCHAR
STARTCHAR infinity
ENCODING 8734
SWIDTH 500 0
DWIDTH 6 0
BBX 4 4 1 2
BITMAP
E0
F0
F0
E0
ENDCHAR
STARTCHAR integral
ENCODING 8747
SWIDTH 500 0
DWIDTH 6 0
BBX 4 4 1 2
BITMAP
E0
F0
F0
E0
ENDCHAR
STARTCHAR approxequal
ENCODING 8776
SWIDTH 500 0
DWIDTH 6 0
BBX 4 4 1 2
BITMAP
E0
F0
F0
E0
ENDCHAR
STARTCHAR notequal
ENCODING 8800
SWIDTH 500 0
DWIDTH 6 0
BBX 4 4 1 2
BITMAP
E0
F0
F0
E0
ENDCHAR
STARTCHAR lessequal
ENCODING 8804
SWIDTH 500 0
DWIDTH 6 0
BBX 4 4 1 2
BITMAP
E0
F0
F0
E0
ENDCHAR
STARTCHAR greaterequal
ENCODING 8805
SWIDTH 500 0
DWIDTH 6 0
BBX 4 4 1 2
BITMAP
E0
F0
F0
E0
ENDCHAR
STARTCHAR lozenge
ENCODING 9674
SWIDTH 500 0
DWIDTH 6 0
BBX 4 4 1 2
BITMAP
E0
F0
F0
E0
ENDCHAR
STARTCHAR uniF000
ENCODING 61440
SWIDTH 500 0
DWIDTH 6 0
BBX 4 4 1 2
BITMAP
E0
F0
F0
E0
ENDCHAR
STARTCHAR uniF001
ENCODING 61441
SWIDTH 333 0
DWIDTH 4 0
BBX 4 2 0 6
BITMAP
90
60
ENDCHAR
STARTCHAR uniF006
ENCODING 61446
SWIDTH 500 0
DWIDTH 6 0
BBX 4 4 1 2
BITMAP
E0
F0
F0
E0
ENDCHAR
STARTCHAR uniFB01
ENCODING 64257
SWIDTH 500 0
DWIDTH 6 0
BBX 5 9 0 0
BITMAP
30
48
40
F8
48
48
48
48
48
ENDCHAR
STARTCHAR uniFB02
ENCODING 64258
SWIDTH 500 0
DWIDTH 6 0
BBX 5 9 0 0
BITMAP
38
48
48
F8
48
48
48
48
48
ENDCHAR
ENDFONT
